<svg width="181" height="53" viewBox="0 0 181 53" fill="none" xmlns="http://www.w3.org/2000/svg">
<path d="M179.5 46.5031C179.5 49.2743 177.209 51.5189 174.374 51.5189H6.63243C3.7995 51.5189 1.5 49.2743 1.5 46.5031V6.50357C1.5 3.73374 3.7995 1.4812 6.63243 1.4812H174.373C177.209 1.4812 179.499 3.73374 179.499 6.50357L179.5 46.5031Z" fill="black"/>
<path d="M173.833 1.54162C176.92 1.54162 179.432 3.9905 179.432 7V46C179.432 49.0095 176.92 51.4584 173.833 51.4584H7.16667C4.08 51.4584 1.56833 49.0095 1.56833 46V7C1.56833 3.9905 4.08 1.54162 7.16667 1.54162H173.833ZM173.833 0.500003H7.16667C3.50167 0.500003 0.5 3.42663 0.5 7V46C0.5 49.5734 3.50167 52.5 7.16667 52.5H173.833C177.498 52.5 180.5 49.5734 180.5 46V7C180.5 3.42663 177.498 0.500003 173.833 0.500003Z" fill="#A6A6A6"/>
<path d="M40.6714 26.2191C40.6328 22.0292 44.1901 19.9908 44.3528 19.8959C42.3381 17.032 39.2154 16.6407 38.1181 16.6095C35.4954 16.3404 32.9514 18.1396 31.6154 18.1396C30.2528 18.1396 28.1954 16.6355 25.9781 16.6797C23.1248 16.7226 20.4554 18.3333 18.9914 20.8345C15.9701 25.9344 18.2234 33.4289 21.1181 37.5512C22.5661 39.5701 24.2581 41.8243 26.4728 41.745C28.6394 41.6579 29.4488 40.3982 32.0634 40.3982C34.6541 40.3982 35.4141 41.745 37.6728 41.6943C39.9981 41.6579 41.4621 39.6663 42.8594 37.6292C44.5328 35.3152 45.2048 33.0363 45.2314 32.9193C45.1768 32.9011 40.7154 31.241 40.6714 26.2191Z" fill="white"/>
<path d="M36.4048 13.8977C37.5701 12.4768 38.3674 10.5437 38.1461 8.58203C36.4594 8.65483 34.3501 9.71953 33.1354 11.1092C32.0608 12.3338 31.1008 14.341 31.3488 16.2286C33.2434 16.3664 35.1888 15.2965 36.4048 13.8977Z" fill="white"/>
<path d="M65.8997 13.5116C65.8997 15.0417 65.4291 16.1935 64.489 16.967C63.6184 17.6807 62.381 18.0382 60.7784 18.0382C59.9837 18.0382 59.3037 18.0044 58.7344 17.9368V9.57646C59.477 9.45946 60.277 9.39966 61.141 9.39966C62.6677 9.39966 63.8184 9.72336 64.5944 10.3708C65.4637 11.1027 65.8997 12.1492 65.8997 13.5116ZM64.4264 13.5493C64.4264 12.5574 64.157 11.7969 63.6184 11.2665C63.0797 10.7374 62.293 10.4722 61.257 10.4722C60.817 10.4722 60.4424 10.5008 60.1317 10.5606V16.9163C60.3037 16.9423 60.6184 16.954 61.0757 16.954C62.145 16.954 62.9704 16.6641 63.5517 16.0843C64.1331 15.5045 64.4264 14.6595 64.4264 13.5493Z" fill="white"/>
<path d="M73.7126 14.8479C73.7126 15.7904 73.4366 16.5626 72.8846 17.1684C72.306 17.7911 71.5393 18.1018 70.582 18.1018C69.6593 18.1018 68.9246 17.8041 68.3766 17.2061C67.83 16.6094 67.5566 15.8567 67.5566 14.9493C67.5566 14.0003 67.838 13.2216 68.4033 12.6171C68.9686 12.0126 69.7286 11.7097 70.686 11.7097C71.6086 11.7097 72.35 12.0074 72.9113 12.6041C73.4446 13.1839 73.7126 13.9327 73.7126 14.8479ZM72.2633 14.8921C72.2633 14.3266 72.138 13.8417 71.8886 13.4374C71.5953 12.9486 71.178 12.7042 70.6353 12.7042C70.074 12.7042 69.6473 12.9486 69.354 13.4374C69.1033 13.8417 68.9793 14.3344 68.9793 14.9168C68.9793 15.4823 69.1046 15.9672 69.354 16.3715C69.6566 16.8603 70.078 17.1047 70.622 17.1047C71.1553 17.1047 71.574 16.8564 71.8753 16.3585C72.134 15.9464 72.2633 15.4576 72.2633 14.8921Z" fill="white"/>
<path d="M84.1867 11.8347L82.2201 17.9629H80.9401L80.1254 15.3018C79.9187 14.6375 79.7507 13.9771 79.6201 13.3219H79.5947C79.4734 13.9953 79.3054 14.6544 79.0894 15.3018L78.2241 17.9629H76.9294L75.0801 11.8347H76.5161L77.2267 14.748C77.3987 15.437 77.5401 16.0935 77.6534 16.7149H77.6787C77.7827 16.2027 77.9547 15.5501 78.1974 14.761L79.0894 11.836H80.2281L81.0827 14.6986C81.2894 15.3967 81.4574 16.0688 81.5867 16.7162H81.6254C81.7201 16.0857 81.8627 15.4136 82.0521 14.6986L82.8147 11.836H84.1867V11.8347Z" fill="white"/>
<path d="M91.4312 17.9627H90.0339V14.4527C90.0339 13.3711 89.6125 12.8303 88.7672 12.8303C88.3525 12.8303 88.0179 12.9785 87.7579 13.2762C87.5005 13.5739 87.3699 13.9249 87.3699 14.3266V17.9614H85.9725V13.5856C85.9725 13.0474 85.9552 12.4637 85.9219 11.8319H87.1499L87.2152 12.79H87.2539C87.4165 12.4923 87.6592 12.2466 87.9779 12.0503C88.3565 11.8215 88.7805 11.7058 89.2445 11.7058C89.8312 11.7058 90.3192 11.8904 90.7072 12.2609C91.1899 12.7146 91.4312 13.3919 91.4312 14.2915V17.9627Z" fill="white"/>
<path d="M95.2847 17.9628H93.8887V9.02271H95.2847V17.9628Z" fill="white"/>
<path d="M103.51 14.8479C103.51 15.7904 103.234 16.5626 102.682 17.1684C102.103 17.7911 101.335 18.1018 100.379 18.1018C99.4549 18.1018 98.7202 17.8041 98.1735 17.2061C97.6268 16.6094 97.3535 15.8567 97.3535 14.9493C97.3535 14.0003 97.6349 13.2216 98.2002 12.6171C98.7655 12.0126 99.5255 11.7097 100.482 11.7097C101.406 11.7097 102.146 12.0074 102.708 12.6041C103.242 13.1839 103.51 13.9327 103.51 14.8479ZM102.059 14.8921C102.059 14.3266 101.934 13.8417 101.684 13.4374C101.392 12.9486 100.974 12.7042 100.432 12.7042C99.8695 12.7042 99.4428 12.9486 99.1508 13.4374C98.9002 13.8417 98.7762 14.3344 98.7762 14.9168C98.7762 15.4823 98.9015 15.9672 99.1508 16.3715C99.4535 16.8603 99.8749 17.1047 100.419 17.1047C100.952 17.1047 101.37 16.8564 101.671 16.3585C101.931 15.9464 102.059 15.4576 102.059 14.8921Z" fill="white"/>
<path d="M110.273 17.9627H109.019L108.915 17.2568H108.876C108.447 17.8197 107.835 18.1018 107.04 18.1018C106.447 18.1018 105.967 17.9159 105.605 17.5467C105.277 17.2113 105.113 16.794 105.113 16.2987C105.113 15.5499 105.433 14.9792 106.077 14.584C106.72 14.1888 107.624 13.9951 108.788 14.0042V13.8898C108.788 13.0825 108.353 12.6795 107.483 12.6795C106.863 12.6795 106.316 12.8316 105.844 13.1332L105.56 12.2388C106.144 11.8865 106.865 11.7097 107.716 11.7097C109.359 11.7097 110.183 12.5547 110.183 14.2447V16.5015C110.183 17.1138 110.213 17.6013 110.273 17.9627ZM108.823 15.8567V14.9116C107.281 14.8856 106.511 15.2977 106.511 16.1466C106.511 16.4664 106.599 16.7056 106.779 16.8655C106.959 17.0254 107.188 17.1047 107.461 17.1047C107.768 17.1047 108.055 17.0098 108.316 16.8213C108.579 16.6315 108.74 16.391 108.8 16.0959C108.815 16.0296 108.823 15.949 108.823 15.8567Z" fill="white"/>
<path d="M118.213 17.9628H116.973L116.908 16.9787H116.869C116.473 17.7275 115.798 18.1019 114.85 18.1019C114.093 18.1019 113.462 17.812 112.962 17.2322C112.462 16.6524 112.213 15.8997 112.213 14.9754C112.213 13.9835 112.484 13.1801 113.028 12.5665C113.554 11.9945 114.2 11.7085 114.968 11.7085C115.812 11.7085 116.402 11.9854 116.738 12.5405H116.765V9.02271H118.164V16.3118C118.164 16.9085 118.18 17.4584 118.213 17.9628ZM116.765 15.3784V14.3566C116.765 14.1798 116.752 14.0368 116.726 13.9276C116.648 13.6 116.478 13.3244 116.221 13.1021C115.961 12.8798 115.648 12.768 115.286 12.768C114.765 12.768 114.357 12.9695 114.057 13.3738C113.76 13.7781 113.609 14.2942 113.609 14.9247C113.609 15.5305 113.752 16.0219 114.038 16.4002C114.341 16.8032 114.749 17.0047 115.26 17.0047C115.718 17.0047 116.085 16.837 116.364 16.5003C116.633 16.1896 116.765 15.8152 116.765 15.3784Z" fill="white"/>
<path d="M130.164 14.8479C130.164 15.7904 129.888 16.5626 129.336 17.1684C128.757 17.7911 127.992 18.1018 127.033 18.1018C126.112 18.1018 125.377 17.8041 124.828 17.2061C124.281 16.6094 124.008 15.8567 124.008 14.9493C124.008 14.0003 124.289 13.2216 124.854 12.6171C125.42 12.0126 126.18 11.7097 127.138 11.7097C128.06 11.7097 128.802 12.0074 129.362 12.6041C129.896 13.1839 130.164 13.9327 130.164 14.8479ZM128.716 14.8921C128.716 14.3266 128.59 13.8417 128.341 13.4374C128.046 12.9486 127.63 12.7042 127.086 12.7042C126.526 12.7042 126.1 12.9486 125.805 13.4374C125.554 13.8417 125.43 14.3344 125.43 14.9168C125.43 15.4823 125.556 15.9672 125.805 16.3715C126.108 16.8603 126.529 17.1047 127.073 17.1047C127.606 17.1047 128.026 16.8564 128.328 16.3585C128.585 15.9464 128.716 15.4576 128.716 14.8921Z" fill="white"/>
<path d="M137.678 17.9627H136.282V14.4527C136.282 13.3711 135.861 12.8303 135.014 12.8303C134.599 12.8303 134.265 12.9785 134.006 13.2762C133.747 13.5739 133.618 13.9249 133.618 14.3266V17.9614H132.219V13.5856C132.219 13.0474 132.203 12.4637 132.17 11.8319H133.397L133.462 12.79H133.501C133.665 12.4923 133.907 12.2466 134.225 12.0503C134.605 11.8215 135.027 11.7058 135.493 11.7058C136.078 11.7058 136.566 11.8904 136.954 12.2609C137.438 12.7146 137.678 13.3919 137.678 14.2915V17.9627Z" fill="white"/>
<path d="M147.082 12.855H145.543V15.832C145.543 16.5886 145.817 16.9669 146.358 16.9669C146.609 16.9669 146.817 16.9461 146.981 16.9032L147.017 17.9367C146.741 18.0381 146.378 18.0888 145.931 18.0888C145.379 18.0888 144.95 17.925 144.639 17.5974C144.327 17.2698 144.173 16.7186 144.173 15.9451V12.855H143.254V11.8345H144.173V10.7113L145.542 10.3083V11.8333H147.081V12.855H147.082Z" fill="white"/>
<path d="M154.478 17.9628H153.08V14.4788C153.08 13.3803 152.658 12.8304 151.814 12.8304C151.166 12.8304 150.724 13.1489 150.481 13.7859C150.44 13.9198 150.416 14.0836 150.416 14.276V17.9615H149.02V9.02271H150.416V12.716H150.442C150.882 12.0439 151.513 11.7085 152.33 11.7085C152.909 11.7085 153.388 11.8931 153.768 12.2636C154.241 12.7251 154.478 13.4115 154.478 14.3189V17.9628Z" fill="white"/>
<path d="M162.109 14.6087C162.109 14.8531 162.091 15.0585 162.057 15.2262H157.867C157.885 15.832 158.085 16.2935 158.473 16.6133C158.828 16.8993 159.285 17.0423 159.845 17.0423C160.465 17.0423 161.031 16.9461 161.54 16.7524L161.759 17.6988C161.163 17.951 160.461 18.0771 159.649 18.0771C158.676 18.0771 157.909 17.7976 157.355 17.2386C156.797 16.6796 156.521 15.9295 156.521 14.9883C156.521 14.064 156.779 13.2944 157.297 12.6808C157.839 12.0256 158.571 11.698 159.495 11.698C160.399 11.698 161.085 12.0256 161.549 12.6808C161.924 13.2008 162.109 13.8443 162.109 14.6087ZM160.776 14.2564C160.787 13.8521 160.695 13.5037 160.505 13.2099C160.263 12.8316 159.893 12.6418 159.393 12.6418C158.937 12.6418 158.565 12.8264 158.281 13.1969C158.049 13.492 157.912 13.8443 157.867 14.2564H160.776Z" fill="white"/>
<path d="M72.0269 41.4552H68.9989L67.3402 36.3735H61.5749L59.9949 41.4552H57.0469L62.7589 24.1548H66.2869L72.0269 41.4552ZM66.8402 34.2415L65.3402 29.724C65.1815 29.2625 64.8842 28.1757 64.4455 26.4649H64.3922C64.2175 27.2007 63.9362 28.2875 63.5495 29.724L62.0762 34.2415H66.8402Z" fill="white"/>
<path d="M86.7159 35.0645C86.7159 37.1861 86.1279 38.8631 84.9519 40.0942C83.8985 41.1901 82.5905 41.7374 81.0292 41.7374C79.3439 41.7374 78.1332 41.1472 77.3959 39.9668H77.3425V46.5383H74.4999V33.0872C74.4999 31.7534 74.4639 30.3845 74.3945 28.9805H76.8945L77.0532 30.9578H77.1065C78.0545 29.468 79.4932 28.7244 81.4239 28.7244C82.9332 28.7244 84.1932 29.3055 85.2012 30.469C86.2119 31.6338 86.7159 33.1652 86.7159 35.0645ZM83.8199 35.1659C83.8199 33.9517 83.5399 32.9507 82.9772 32.1629C82.3625 31.3413 81.5372 30.9305 80.5025 30.9305C79.8012 30.9305 79.1639 31.1593 78.5945 31.6104C78.0239 32.0654 77.6505 32.6595 77.4759 33.3953C77.3879 33.7385 77.3439 34.0193 77.3439 34.2403V36.3203C77.3439 37.2277 77.6292 37.9934 78.1999 38.6187C78.7705 39.244 79.5119 39.556 80.4239 39.556C81.4945 39.556 82.3279 39.153 82.9239 38.3496C83.5212 37.5449 83.8199 36.4841 83.8199 35.1659Z" fill="white"/>
<path d="M101.431 35.0645C101.431 37.1861 100.843 38.8631 99.666 40.0942C98.614 41.1901 97.306 41.7374 95.7447 41.7374C94.0593 41.7374 92.8487 41.1472 92.1127 39.9668H92.0593V46.5383H89.2167V33.0872C89.2167 31.7534 89.1807 30.3845 89.1113 28.9805H91.6113L91.77 30.9578H91.8233C92.77 29.468 94.2087 28.7244 96.1407 28.7244C97.6487 28.7244 98.9087 29.3055 99.9193 30.469C100.926 31.6338 101.431 33.1652 101.431 35.0645ZM98.5353 35.1659C98.5353 33.9517 98.254 32.9507 97.6913 32.1629C97.0767 31.3413 96.254 30.9305 95.218 30.9305C94.5153 30.9305 93.8793 31.1593 93.3087 31.6104C92.738 32.0654 92.366 32.6595 92.1913 33.3953C92.1047 33.7385 92.0593 34.0193 92.0593 34.2403V36.3203C92.0593 37.2277 92.3447 37.9934 92.9127 38.6187C93.4833 39.2427 94.2247 39.556 95.1393 39.556C96.21 39.556 97.0433 39.153 97.6393 38.3496C98.2367 37.5449 98.5353 36.4841 98.5353 35.1659Z" fill="white"/>
<path d="M117.885 36.6037C117.885 38.0753 117.361 39.2726 116.309 40.1969C115.153 41.207 113.544 41.7114 111.476 41.7114C109.566 41.7114 108.036 41.3526 106.877 40.6337L107.536 38.3236C108.784 39.0594 110.153 39.4286 111.645 39.4286C112.716 39.4286 113.549 39.192 114.148 38.7214C114.744 38.2508 115.041 37.619 115.041 36.8312C115.041 36.1292 114.796 35.5377 114.304 35.058C113.814 34.5783 112.997 34.1324 111.856 33.7203C108.749 32.5906 107.197 30.9357 107.197 28.7595C107.197 27.3373 107.741 26.1712 108.83 25.2638C109.916 24.3551 111.364 23.9014 113.174 23.9014C114.789 23.9014 116.13 24.1757 117.201 24.723L116.49 26.9824C115.49 26.452 114.36 26.1868 113.094 26.1868C112.094 26.1868 111.313 26.4273 110.753 26.9057C110.28 27.3334 110.042 27.8547 110.042 28.4722C110.042 29.156 110.313 29.7215 110.857 30.1661C111.33 30.5769 112.19 31.0215 113.438 31.5012C114.965 32.1005 116.086 32.8012 116.808 33.6046C117.526 34.4054 117.885 35.4077 117.885 36.6037Z" fill="white"/>
<path d="M127.284 31.0604H124.151V37.1171C124.151 38.6576 124.703 39.4272 125.81 39.4272C126.318 39.4272 126.739 39.3843 127.072 39.2985L127.151 41.4032C126.591 41.6073 125.854 41.71 124.94 41.71C123.818 41.71 122.94 41.3759 122.307 40.709C121.676 40.0408 121.359 38.9202 121.359 37.3459V31.0578H119.492V28.9778H121.359V26.6937L124.151 25.8721V28.9778H127.284V31.0604Z" fill="white"/>
<path d="M141.421 35.1151C141.421 37.0326 140.858 38.6069 139.735 39.838C138.558 41.1055 136.995 41.7373 135.047 41.7373C133.17 41.7373 131.675 41.1302 130.561 39.916C129.446 38.7018 128.889 37.1691 128.889 35.3218C128.889 33.3887 129.462 31.8053 130.613 30.5742C131.761 29.3418 133.31 28.7256 135.258 28.7256C137.135 28.7256 138.646 29.3327 139.786 30.5482C140.877 31.7273 141.421 33.2496 141.421 35.1151ZM138.471 35.2048C138.471 34.0543 138.219 33.0676 137.709 32.2447C137.113 31.2489 136.261 30.7523 135.157 30.7523C134.014 30.7523 133.146 31.2502 132.55 32.2447C132.039 33.0689 131.787 34.0712 131.787 35.2568C131.787 36.4073 132.039 37.394 132.55 38.2156C133.165 39.2114 134.023 39.708 135.131 39.708C136.217 39.708 137.069 39.201 137.683 38.1896C138.207 37.3511 138.471 36.354 138.471 35.2048Z" fill="white"/>
<path d="M150.662 31.418C150.38 31.3673 150.08 31.3413 149.766 31.3413C148.766 31.3413 147.992 31.7092 147.448 32.4463C146.975 33.0963 146.738 33.9179 146.738 34.9098V41.4553H143.896L143.923 32.9091C143.923 31.4713 143.887 30.1622 143.816 28.9818H146.292L146.396 31.3686H146.475C146.775 30.5483 147.248 29.8879 147.896 29.3926C148.53 28.9467 149.214 28.7244 149.951 28.7244C150.214 28.7244 150.451 28.7426 150.662 28.7751V31.418Z" fill="white"/>
<path d="M163.375 34.6276C163.375 35.1242 163.341 35.5428 163.271 35.8847H154.743C154.776 37.1171 155.188 38.0596 155.98 38.7096C156.699 39.2907 157.628 39.5819 158.769 39.5819C160.032 39.5819 161.184 39.3856 162.22 38.9917L162.665 40.9157C161.455 41.4305 160.025 41.6866 158.376 41.6866C156.392 41.6866 154.835 41.1172 153.701 39.9797C152.571 38.8422 152.004 37.3147 152.004 35.3985C152.004 33.5174 152.531 31.9509 153.585 30.7016C154.689 29.3678 156.181 28.7009 158.059 28.7009C159.903 28.7009 161.299 29.3678 162.247 30.7016C162.997 31.7611 163.375 33.0715 163.375 34.6276ZM160.664 33.9087C160.683 33.0871 160.497 32.3773 160.112 31.778C159.62 31.0071 158.864 30.6223 157.847 30.6223C156.917 30.6223 156.161 30.998 155.584 31.752C155.111 32.3513 154.829 33.0702 154.743 33.9074H160.664V33.9087Z" fill="white"/>
</svg>
