<svg width="49" height="49" viewBox="0 0 49 49" fill="none" xmlns="http://www.w3.org/2000/svg">
<g clip-path="url(#clip0_506_6497)">
<path fill-rule="evenodd" clip-rule="evenodd" d="M24.9615 2H24.9593C24.918 2 24.879 2 24.8419 2.00037C24.5464 2.00337 24.0604 2.00825 24.0169 2.00862C22.9515 2.00862 20.8193 2.15863 18.5291 3.16662C17.2196 3.74262 16.0421 4.52112 15.0285 5.48112C13.8203 6.62487 12.8363 8.03487 12.1039 9.67287C11.0314 12.071 11.286 16.1109 11.4904 19.3572L11.4911 19.3625C11.5129 19.7101 11.5361 20.0731 11.5571 20.4271C11.3996 20.4991 11.1446 20.5752 10.7685 20.5752C10.1636 20.5752 9.44401 20.3825 8.63063 20.0022C8.39138 19.8912 8.11801 19.835 7.81688 19.835C7.33276 19.835 6.82201 19.9771 6.37913 20.2366C5.82188 20.5629 5.46188 21.0237 5.36438 21.5349C5.29988 21.8731 5.30288 22.5414 6.04763 23.219C6.45713 23.5921 7.05863 23.936 7.83526 24.242C8.03888 24.3219 8.28076 24.3984 8.53688 24.4794C9.42563 24.761 10.7708 25.1866 11.1218 26.0097C11.2995 26.4271 11.223 26.9765 10.8949 27.6402C10.8863 27.6582 10.8776 27.6762 10.8698 27.6946C10.7876 27.8855 10.023 29.6127 8.45438 31.4345C7.56301 32.4702 6.58126 33.3361 5.53763 34.0085C4.26413 34.8294 2.88601 35.3656 1.44226 35.603C0.874883 35.6956 0.469883 36.1992 0.501758 36.7719C0.511508 36.9369 0.550133 37.1011 0.617633 37.2605C0.618008 37.2616 0.618758 37.2624 0.619133 37.2635C0.848258 37.7982 1.38001 38.2524 2.24401 38.6529C3.30001 39.1419 4.87913 39.5532 6.93751 39.8754C7.04138 40.0726 7.14938 40.5684 7.22438 40.9077C7.30276 41.2685 7.38413 41.6394 7.50038 42.0331C7.62601 42.4599 7.95151 42.9699 8.78776 42.9699C9.10463 42.9699 9.46913 42.8986 9.89138 42.8172C10.5094 42.6965 11.3546 42.5315 12.4099 42.5315C12.9949 42.5315 13.6009 42.5829 14.211 42.6837C15.387 42.8791 16.401 43.5931 17.5744 44.4204C19.2915 45.6309 21.2351 47.0007 24.2048 47.0007C24.2858 47.0007 24.3671 46.9981 24.4474 46.9925C24.5456 46.997 24.6671 47.0007 24.7954 47.0007C27.7658 47.0007 29.709 45.6301 31.4243 44.4211L31.4269 44.4185C32.6003 43.5924 33.6131 42.8791 34.7888 42.6841C35.3985 42.5832 36.0049 42.5319 36.5899 42.5319C37.5979 42.5319 38.3959 42.6601 39.1084 42.7985C39.5734 42.8896 39.9349 42.9339 40.212 42.9339L40.239 42.9342H40.2671C40.8788 42.9342 41.3284 42.5994 41.4998 42.0136C41.6138 41.6281 41.6951 41.2659 41.7754 40.8991C41.8451 40.5811 41.9569 40.0715 42.0611 39.872C44.121 39.5495 45.6994 39.1389 46.7558 38.6499C47.6179 38.2512 48.1489 37.7975 48.3795 37.265C48.4485 37.1052 48.489 36.9399 48.498 36.7715C48.5306 36.2 48.1249 35.6952 47.5575 35.6026C41.1405 34.5481 38.2496 27.974 38.1304 27.6946C38.1225 27.6762 38.1139 27.6579 38.1049 27.6402C37.7768 26.9761 37.701 26.4275 37.8791 26.0094C38.229 25.187 39.5734 24.7614 40.4629 24.4797C40.7205 24.3987 40.9631 24.3219 41.1653 24.2424C42.0409 23.8977 42.6668 23.5235 43.0796 23.0986C43.5728 22.5924 43.6688 22.1071 43.6628 21.7895C43.6478 21.0211 43.0586 20.3386 42.1219 20.0041C41.8054 19.8736 41.4446 19.8046 41.0771 19.8046C40.827 19.8046 40.4565 19.8387 40.1059 20.0022C39.3551 20.3525 38.6828 20.5441 38.1053 20.5715C37.7981 20.5561 37.5829 20.4897 37.4434 20.4264C37.461 20.1267 37.4805 19.8189 37.5004 19.4979L37.5086 19.3606C37.7141 16.1124 37.9699 12.0695 36.8966 9.6695C36.1613 8.02587 35.1735 6.61212 33.9604 5.46575C32.943 4.50537 31.7614 3.7265 30.4474 3.15125C28.1603 2.14963 26.0284 2 24.9615 2Z" fill="#002855"/>
</g>
<defs>
<clipPath id="clip0_506_6497">
<rect width="48" height="48" fill="white" transform="translate(0.5 0.5)"/>
</clipPath>
</defs>
</svg>
