<svg width="16" height="14" viewBox="0 0 16 14" fill="none" xmlns="http://www.w3.org/2000/svg">
<path d="M1 2.50002H1.071C1.18014 2.92881 1.42903 3.30902 1.77836 3.58057C2.12769 3.85213 2.55754 3.99955 3 3.99955C3.44246 3.99955 3.87231 3.85213 4.22164 3.58057C4.57097 3.30902 4.81986 2.92881 4.929 2.50002H15C15.1326 2.50002 15.2598 2.44734 15.3536 2.35357C15.4473 2.25981 15.5 2.13263 15.5 2.00002C15.5 1.86741 15.4473 1.74024 15.3536 1.64647C15.2598 1.5527 15.1326 1.50002 15 1.50002H4.929C4.81986 1.07123 4.57097 0.691022 4.22164 0.419466C3.87231 0.147911 3.44246 0.000488281 3 0.000488281C2.55754 0.000488281 2.12769 0.147911 1.77836 0.419466C1.42903 0.691022 1.18014 1.07123 1.071 1.50002H1C0.867392 1.50002 0.740215 1.5527 0.646447 1.64647C0.552678 1.74024 0.5 1.86741 0.5 2.00002C0.5 2.13263 0.552678 2.25981 0.646447 2.35357C0.740215 2.44734 0.867392 2.50002 1 2.50002ZM3 1.00002C3.19778 1.00002 3.39112 1.05867 3.55557 1.16855C3.72002 1.27843 3.84819 1.43461 3.92388 1.61734C3.99957 1.80006 4.01937 2.00113 3.98079 2.19511C3.9422 2.38909 3.84696 2.56728 3.70711 2.70713C3.56725 2.84698 3.38907 2.94222 3.19509 2.98081C3.00111 3.01939 2.80004 2.99959 2.61732 2.9239C2.43459 2.84821 2.27841 2.72004 2.16853 2.55559C2.05865 2.39114 2 2.1978 2 2.00002C2 1.7348 2.10536 1.48045 2.29289 1.29291C2.48043 1.10538 2.73478 1.00002 3 1.00002ZM15 6.50002H14.929C14.8199 6.07123 14.571 5.69102 14.2216 5.41947C13.8723 5.14791 13.4425 5.00049 13 5.00049C12.5575 5.00049 12.1277 5.14791 11.7784 5.41947C11.429 5.69102 11.1801 6.07123 11.071 6.50002H1C0.867392 6.50002 0.740215 6.5527 0.646447 6.64647C0.552678 6.74024 0.5 6.86741 0.5 7.00002C0.5 7.13263 0.552678 7.25981 0.646447 7.35357C0.740215 7.44734 0.867392 7.50002 1 7.50002H11.071C11.1801 7.92881 11.429 8.30902 11.7784 8.58057C12.1277 8.85213 12.5575 8.99955 13 8.99955C13.4425 8.99955 13.8723 8.85213 14.2216 8.58057C14.571 8.30902 14.8199 7.92881 14.929 7.50002H15C15.1326 7.50002 15.2598 7.44734 15.3536 7.35357C15.4473 7.25981 15.5 7.13263 15.5 7.00002C15.5 6.86741 15.4473 6.74024 15.3536 6.64647C15.2598 6.5527 15.1326 6.50002 15 6.50002ZM13 8.00002C12.8022 8.00002 12.6089 7.94137 12.4444 7.83149C12.28 7.72161 12.1518 7.56543 12.0761 7.3827C12.0004 7.19998 11.9806 6.99891 12.0192 6.80493C12.0578 6.61095 12.153 6.43277 12.2929 6.29291C12.4327 6.15306 12.6109 6.05782 12.8049 6.01924C12.9989 5.98065 13.2 6.00045 13.3827 6.07614C13.5654 6.15183 13.7216 6.28 13.8315 6.44445C13.9414 6.6089 14 6.80224 14 7.00002C14 7.26524 13.8946 7.51959 13.7071 7.70713C13.5196 7.89466 13.2652 8.00002 13 8.00002ZM15 11.5H9.929C9.81986 11.0712 9.57097 10.691 9.22164 10.4195C8.87231 10.1479 8.44246 10.0005 8 10.0005C7.55754 10.0005 7.12769 10.1479 6.77836 10.4195C6.42903 10.691 6.18014 11.0712 6.071 11.5H1C0.867392 11.5 0.740215 11.5527 0.646447 11.6465C0.552678 11.7402 0.5 11.8674 0.5 12C0.5 12.1326 0.552678 12.2598 0.646447 12.3536C0.740215 12.4473 0.867392 12.5 1 12.5H6.071C6.18014 12.9288 6.42903 13.309 6.77836 13.5806C7.12769 13.8521 7.55754 13.9996 8 13.9996C8.44246 13.9996 8.87231 13.8521 9.22164 13.5806C9.57097 13.309 9.81986 12.9288 9.929 12.5H15C15.1326 12.5 15.2598 12.4473 15.3536 12.3536C15.4473 12.2598 15.5 12.1326 15.5 12C15.5 11.8674 15.4473 11.7402 15.3536 11.6465C15.2598 11.5527 15.1326 11.5 15 11.5ZM8 13C7.80222 13 7.60888 12.9414 7.44443 12.8315C7.27998 12.7216 7.15181 12.5654 7.07612 12.3827C7.00043 12.2 6.98063 11.9989 7.01921 11.8049C7.0578 11.6109 7.15304 11.4328 7.29289 11.2929C7.43275 11.1531 7.61093 11.0578 7.80491 11.0192C7.99889 10.9806 8.19996 11.0005 8.38268 11.0761C8.56541 11.1518 8.72159 11.28 8.83147 11.4445C8.94135 11.6089 9 11.8022 9 12C9 12.2652 8.89464 12.5196 8.70711 12.7071C8.51957 12.8947 8.26522 13 8 13Z" fill="black"/>
</svg>
