<svg width="16" height="16" viewBox="0 0 16 16" fill="none" xmlns="http://www.w3.org/2000/svg">
<path d="M10.1785 7.60518L15.6252 2.17118C15.8637 1.93266 15.9977 1.60916 15.9977 1.27185C15.9977 0.934534 15.8637 0.611034 15.6252 0.372516C15.3866 0.133998 15.0632 0 14.7258 0C14.3885 0 14.065 0.133998 13.8265 0.372516L8.3925 5.81918L2.9585 0.372516C2.71998 0.133998 2.39648 -2.51319e-09 2.05917 0C1.72185 2.5132e-09 1.39835 0.133998 1.15983 0.372516C0.921316 0.611034 0.787318 0.934534 0.787318 1.27185C0.787318 1.60916 0.921316 1.93266 1.15983 2.17118L6.6065 7.60518L1.15983 13.0392C1.04111 13.1569 0.946879 13.297 0.882572 13.4514C0.818265 13.6057 0.785156 13.7713 0.785156 13.9385C0.785156 14.1057 0.818265 14.2713 0.882572 14.4256C0.946879 14.58 1.04111 14.7201 1.15983 14.8378C1.27759 14.9566 1.41768 15.0508 1.57204 15.1151C1.72639 15.1794 1.89195 15.2125 2.05917 15.2125C2.22638 15.2125 2.39194 15.1794 2.5463 15.1151C2.70065 15.0508 2.84075 14.9566 2.9585 14.8378L8.3925 9.39118L13.8265 14.8378C13.9443 14.9566 14.0843 15.0508 14.2387 15.1151C14.3931 15.1794 14.5586 15.2125 14.7258 15.2125C14.8931 15.2125 15.0586 15.1794 15.213 15.1151C15.3673 15.0508 15.5074 14.9566 15.6252 14.8378C15.7439 14.7201 15.8381 14.58 15.9024 14.4256C15.9667 14.2713 15.9998 14.1057 15.9998 13.9385C15.9998 13.7713 15.9667 13.6057 15.9024 13.4514C15.8381 13.297 15.7439 13.1569 15.6252 13.0392L10.1785 7.60518Z" fill="#002855"/>
</svg>
