<svg width="25" height="24" viewBox="0 0 25 24" fill="none" xmlns="http://www.w3.org/2000/svg">
<path d="M8.27111 2.43899L9.3477 2.09498C10.3565 1.77263 11.4343 2.29358 11.8664 3.31232L12.7261 5.33967C13.1008 6.22312 12.8929 7.26203 12.2121 7.90815L10.3178 9.70616C10.4347 10.7816 10.7962 11.8406 11.4023 12.8832C12.0085 13.9257 12.7655 14.7905 13.6734 15.4776L15.9486 14.7189C16.811 14.4313 17.7502 14.7618 18.2792 15.539L19.5115 17.3495C20.1265 18.2529 20.0159 19.4993 19.2528 20.2653L18.4351 21.0862C17.6212 21.9033 16.4587 22.1997 15.3833 21.8643C12.8444 21.0723 10.5101 18.7211 8.38034 14.8107C6.24747 10.8945 5.49472 7.57189 6.12209 4.84289C6.38609 3.69457 7.2036 2.78009 8.27111 2.43899Z" fill="#002855"/>
</svg>
