<svg width="28" height="28" viewBox="0 0 28 28" fill="none" xmlns="http://www.w3.org/2000/svg">
<g clip-path="url(#clip0_796_8948)">
<path d="M13.9994 3.36035C8.11938 3.36035 3.35938 8.12035 3.35938 14.0004C3.35938 19.8804 8.11938 24.6404 13.9994 24.6404C19.8794 24.6404 24.6394 19.8804 24.6394 14.0004C24.6394 8.12035 19.8794 3.36035 13.9994 3.36035ZM13.9994 23.5204C8.73538 23.5204 4.47938 19.2644 4.47938 14.0004C4.47938 8.73635 8.73538 4.48035 13.9994 4.48035C19.2634 4.48035 23.5194 8.73635 23.5194 14.0004C23.5194 19.2644 19.2634 23.5204 13.9994 23.5204ZM20.4114 10.3884C20.1874 10.1644 19.8514 10.1644 19.6274 10.3884L12.4874 17.5564L9.49138 14.5604C9.26738 14.3364 8.90338 14.3364 8.70738 14.5604C8.48338 14.7844 8.48338 15.1484 8.70738 15.3444L12.0954 18.7324C12.2074 18.8444 12.3474 18.9004 12.4874 18.9004C12.6274 18.9004 12.7674 18.8444 12.8794 18.7324L20.4114 11.1724C20.6354 10.9484 20.6354 10.6124 20.4114 10.3884Z" fill="#002855"/>
<path d="M460.321 -338.8V132.72H-39.1995V-338.8H460.321ZM462.561 -341.04H-41.4395V134.96H462.561V-341.04Z" fill="#0000FF"/>
</g>
<defs>
<clipPath id="clip0_796_8948">
<rect width="28" height="28" fill="white"/>
</clipPath>
</defs>
</svg>
