<svg width="30" height="30" viewBox="0 0 30 30" fill="none" xmlns="http://www.w3.org/2000/svg">
<g id="whatsapp 1" clip-path="url(#clip0_385_30193)">
<path id="Path 19" d="M29.9976 22.3863C29.9976 22.5504 29.9926 22.9069 29.9826 23.1819C29.9697 23.8305 29.9169 24.4777 29.8244 25.1198C29.7162 25.6828 29.5336 26.2289 29.2812 26.7436C28.7248 27.8402 27.8333 28.7308 26.7362 29.286C26.2185 29.539 25.6693 29.7217 25.1032 29.8292C24.4659 29.92 23.8236 29.9718 23.18 29.9845C22.9047 29.9942 22.5482 29.9992 22.3859 29.9992L7.61441 29.9969C7.45029 29.9969 7.09412 29.9919 6.81882 29.9819C6.17021 29.9689 5.523 29.9161 4.88088 29.8236C4.31789 29.7155 3.77181 29.5328 3.25706 29.2804C2.15951 28.7245 1.26795 27.8329 0.712059 26.7354C0.459449 26.2177 0.277149 25.6685 0.17 25.1025C0.0792727 24.4651 0.0274121 23.8229 0.0147059 23.1792C0.0059544 22.9146 0.00105192 22.6499 0 22.3851L0.00235294 7.61334C0.00235294 7.44922 0.00735294 7.09275 0.0173529 6.81775C0.0302757 6.16914 0.0831207 5.52193 0.175588 4.87981C0.283751 4.31681 0.466436 3.77074 0.718823 3.25599C1.27483 2.15867 2.16638 1.26733 3.26382 0.711576C3.78151 0.458498 4.33068 0.275705 4.89676 0.168047C5.5341 0.0772892 6.17636 0.0254285 6.82 0.0127528C7.09529 0.0030469 7.45176 -0.00195312 7.61412 -0.00195312L22.3871 0.00157629C22.5515 0.00157629 22.9076 0.00657628 23.1826 0.0165763C23.8313 0.0295035 24.4785 0.0823485 25.1206 0.174812C25.6836 0.282974 26.2297 0.46566 26.7444 0.718047C27.841 1.27437 28.7316 2.16589 29.2868 3.26305C29.5399 3.78071 29.7227 4.32989 29.8303 4.89599C29.921 5.53332 29.9729 6.17559 29.9856 6.81922C29.9953 7.09452 30.0003 7.45099 30.0003 7.61334L29.9979 22.3848L29.9976 22.3863Z" fill="url(#paint0_linear_385_30193)"/>
<g id="Group 2">
<path id="Path 20" d="M22.9462 7.09756C21.1014 5.25223 18.6488 4.14023 16.0451 3.96862C13.4415 3.79701 10.8641 4.57747 8.79307 6.1647C6.722 7.75193 5.29834 10.0377 4.78718 12.5965C4.27601 15.1553 4.71218 17.8126 6.01446 20.0737L4.48828 25.6467L10.1912 24.1511C11.7686 25.0099 13.536 25.46 15.3321 25.4602H15.3365C17.4639 25.4601 19.5436 24.8293 21.3125 23.6475C23.0815 22.4657 24.4604 20.786 25.2748 18.8207C26.0893 16.8553 26.3028 14.6926 25.8883 12.606C25.4738 10.5193 24.45 8.60242 22.9462 7.09756ZM15.3374 23.6437H15.3339C13.7326 23.644 12.1608 23.2137 10.783 22.3979L10.4565 22.204L7.0724 23.0914L7.97563 19.7929L7.76299 19.4546C6.70937 17.7755 6.24362 15.7939 6.43895 13.8212C6.63427 11.8486 7.4796 9.99679 8.84205 8.55692C10.2045 7.11705 12.0068 6.17076 13.9657 5.86682C15.9245 5.56287 17.9288 5.9185 19.6636 6.8778C21.3983 7.8371 22.765 9.34568 23.5489 11.1664C24.3328 12.9871 24.4895 15.0167 23.9942 16.9361C23.499 18.8555 22.3799 20.556 20.813 21.7701C19.246 22.9842 17.32 23.6432 15.3377 23.6434L15.3374 23.6437ZM20.2403 16.9493C19.9715 16.8149 18.65 16.1646 18.4036 16.0749C18.1571 15.9852 17.978 15.9405 17.7989 16.2093C17.6198 16.4781 17.1045 17.0837 16.9477 17.2629C16.7909 17.442 16.6342 17.4646 16.3653 17.3302C15.5728 17.0145 14.8414 16.5632 14.2039 15.9964C13.6162 15.4532 13.1123 14.8259 12.7086 14.1349C12.5518 13.8658 12.6918 13.7205 12.8262 13.5864C12.9471 13.4661 13.095 13.2726 13.2295 13.1158C13.34 12.98 13.4306 12.8291 13.4983 12.6676C13.534 12.5934 13.5506 12.5116 13.5467 12.4294C13.5428 12.3473 13.5185 12.2674 13.4759 12.197C13.4089 12.0626 12.8712 10.7399 12.6471 10.202C12.4289 9.67786 12.2059 9.74874 12.0424 9.7408C11.8707 9.73348 11.6989 9.73034 11.5271 9.73138C11.3909 9.73495 11.2569 9.76666 11.1336 9.82451C11.0102 9.88237 10.9002 9.96512 10.8103 10.0676C10.5064 10.3554 10.2657 10.7033 10.1036 11.0893C9.94159 11.4753 9.86174 11.8908 9.86916 12.3093C9.86916 13.6329 10.8324 14.9096 10.9668 15.089C11.1012 15.2684 12.8621 17.9826 15.5586 19.1479C16.059 19.3634 16.5705 19.5524 17.0909 19.714C17.6393 19.8806 18.219 19.9171 18.7839 19.8205C19.3003 19.7434 20.3742 19.1705 20.5983 18.5429C20.7741 18.1414 20.8286 17.6973 20.755 17.2652C20.6877 17.1531 20.5086 17.0858 20.2398 16.9514L20.2403 16.9493Z" fill="white"/>
</g>
</g>
<defs>
<linearGradient id="paint0_linear_385_30193" x1="15.0001" y1="-0.00195312" x2="15.0001" y2="29.9992" gradientUnits="userSpaceOnUse">
<stop stop-color="#61FD7D"/>
<stop offset="1" stop-color="#2BB826"/>
</linearGradient>
<clipPath id="clip0_385_30193">
<rect width="30" height="30" fill="white"/>
</clipPath>
</defs>
</svg>
