<svg width="49" height="35" viewBox="0 0 49 35" fill="none" xmlns="http://www.w3.org/2000/svg">
<g clip-path="url(#clip0_506_6494)">
<path d="M32.4714 17.0087C28.0704 14.6568 23.8564 12.4946 19.5488 10.2371V23.7421C24.0817 21.278 28.8594 19.0213 32.4901 17.0087H32.4714Z" fill="white"/>
<path d="M20.3794 34.3138C11.238 34.1454 8.11578 33.9941 6.19667 33.5987C4.89827 33.3359 3.76996 32.7527 2.94265 31.9066C2.30324 31.2663 1.79474 30.2894 1.40024 28.934C1.06183 27.8048 0.930032 26.8653 0.742128 24.5704C0.454484 19.391 0.385913 15.1565 0.742128 10.4251C1.03601 7.81223 1.17849 4.71049 3.13055 2.90091C4.05226 2.05401 5.12447 1.509 6.32847 1.28369C8.20929 0.926588 16.2224 0.644287 24.5177 0.644287C32.7944 0.644287 40.8252 0.926588 42.7078 1.28369C44.212 1.56599 45.6226 2.412 46.4508 3.50291C48.2318 6.30455 48.263 9.78833 48.4438 12.5134C48.5186 13.8118 48.5186 21.1846 48.4438 22.483C48.1624 26.7896 47.9362 28.3133 47.2968 29.8931C46.9014 30.8905 46.5639 31.4168 45.9797 32.0001C45.0635 32.8978 43.8954 33.4948 42.6313 33.7118C34.7206 34.3066 28.0033 34.4358 20.3794 34.3138ZM32.4934 17.0088C28.0923 14.6569 23.8783 12.476 19.5708 10.2185V23.7244C24.1036 21.2603 28.8822 19.0027 32.5121 16.9901L32.4934 17.0088Z" fill="#002855"/>
</g>
<defs>
<clipPath id="clip0_506_6494">
<rect width="48" height="33.7152" fill="white" transform="translate(0.5 0.642334)"/>
</clipPath>
</defs>
</svg>
