<?xml version="1.0" encoding="utf-8"?>
<!-- Generator: Adobe Illustrator 22.0.1, SVG Export Plug-In . SVG Version: 6.00 Build 0)  -->
<svg version="1.1" id="Layer_1" xmlns="http://www.w3.org/2000/svg" xmlns:xlink="http://www.w3.org/1999/xlink" x="0px" y="0px"
	 viewBox="0 0 920.8 141.1" style="enable-background:new 0 0 920.8 141.1;" xml:space="preserve">
<style type="text/css">
	.st0{fill:#001A72;}
	.st1{fill:#002855;}
	.st2{fill:#FFFFFF;}
	.st3{fill:#B2B2B2;}
	.st4{fill:none;}
</style>
<g>
	<path class="st1" d="M0,0.5h202.9v140.1H0V0.5L0,0.5z M12,12.1V129h178.9V12.1H12L12,12.1z M101.6,2.4c-2,0-3.6,1.6-3.6,3.5
		c0,1.9,1.6,3.5,3.6,3.5c2,0,3.6-1.6,3.6-3.5C105.2,4,103.6,2.4,101.6,2.4L101.6,2.4z M101.6,131c-2,0-3.6,1.6-3.6,3.5
		c0,1.9,1.6,3.5,3.6,3.5c2,0,3.6-1.6,3.6-3.5C105.2,132.6,103.6,131,101.6,131L101.6,131z M6.3,66.6c-2,0-3.6,1.6-3.6,3.5
		c0,1.9,1.6,3.5,3.6,3.5c2,0,3.6-1.6,3.6-3.5C9.9,68.2,8.3,66.6,6.3,66.6L6.3,66.6z M196.4,67.1c-2,0-3.6,1.6-3.6,3.5
		c0,1.9,1.6,3.5,3.6,3.5c2,0,3.6-1.6,3.6-3.5C200,68.6,198.4,67.1,196.4,67.1z"/>
	<path class="st1" d="M80.3,26.9c-9.3,0.9-18.2,3-25.3,11.7C46.4,49,44.7,62,44.3,74.9c-0.1,4.5,0.1,9,0.9,13.5
		c3.2,17.9,15.2,28,34.2,29.9c-13.9-6.4-19.8-20-20.2-38.6c0.2-15,0.6-30.9,9.3-43.9C72.4,29.9,76.3,28.3,80.3,26.9L80.3,26.9z"/>
	<path class="st1" d="M82.2,26.4c4.3-1.1,8.6-2.3,12.9-5.3c-0.7,12.4-1.4,24.7-2.1,37.1c-1.7-9.7-3.4-19.4-5.1-29.1
		C86,28.4,84.1,27.2,82.2,26.4L82.2,26.4z"/>
	<polygon class="st1" points="68.9,81.2 95.4,81 93.3,113.1 101.5,118.4 81.3,118.5 82.3,86.9 68.9,81.2 	"/>
	<path class="st1" d="M121,26.4c-4.3-1.1-8.6-2.3-12.9-5.3c0.7,12.4,1.4,24.7,2.1,37.1c1.7-9.7,3.4-19.4,5.1-29.1
		C117.2,28.4,119.2,27.2,121,26.4L121,26.4z"/>
	<path class="st1" d="M122.5,115.5c-4.3,1.1-8.6,2.3-12.9,5.3c0.7-12.4,1.4-24.7,2.1-37.1c1.7,9.7,3.4,19.4,5.1,29.1
		C118.7,113.5,120.7,114.7,122.5,115.5z"/>
	<g>
		<path class="st1" d="M316.9,85.4c-1.7,0.9-3.7,1.8-6,2.7c-2.3,0.9-4.7,1.6-7.3,2.3c-2.6,0.7-5.1,1.3-7.7,1.7
			c-2.6,0.5-5,0.7-7.2,0.7c-7.2,0-13.6-0.9-19.4-2.7c-5.7-1.8-10.6-4.5-14.7-8.1c-4-3.7-7.2-8.3-9.4-13.9c-2.2-5.6-3.3-12.3-3.3-20
			c0-8.1,1.3-14.9,3.8-20.6c2.6-5.7,6-10.3,10.2-13.9c4.3-3.6,9.1-6.2,14.5-7.8c5.4-1.6,11-2.4,16.6-2.4c5.9,0,10.9,0.3,15,1
			c4.1,0.7,7.7,1.7,10.7,3.1c0,1.2,0,2.8-0.1,4.6c-0.1,1.8-0.2,3.7-0.4,5.7c-0.2,2-0.4,3.9-0.7,5.9c-0.3,1.9-0.5,3.6-0.8,5.1h-3.5
			l-7-17.8c-1-0.5-2.6-0.8-5-1c-2.3-0.2-4.6-0.2-6.8-0.2c-4.5,0-8.7,0.8-12.8,2.3c-4,1.5-7.5,3.9-10.5,7c-3,3.2-5.4,7.2-7.2,12
			c-1.8,4.8-2.7,10.5-2.7,17c0,5.8,0.9,11.1,2.6,15.8c1.7,4.7,4.2,8.7,7.3,12c3.1,3.3,6.7,5.9,10.9,7.7c4.2,1.8,8.7,2.7,13.5,2.7
			c1.8,0,3.5-0.2,5.2-0.5c1.7-0.3,3.3-0.7,4.7-1.2c1.4-0.5,2.6-0.9,3.6-1.4c0.9-0.5,1.6-0.9,1.9-1.2V57.1c-2.3-0.2-4.6-0.5-6.7-1.1
			c-2.1-0.6-4.2-1.2-6.3-1.8v-3.6h33v3.6c-0.9,0.6-2,1.1-3.2,1.6c-1.3,0.5-3,0.9-5.1,1.4V85.4z"/>
		<path class="st1" d="M361.1,92.8h-29.9v-3.1c1.3-0.7,2.7-1.2,4.2-1.7c1.4-0.5,3-0.9,4.7-1.3V38.3l-8.9-1v-3.2
			c2.6-1,5.4-1.9,8.5-2.6c3.1-0.7,6.1-1.4,9.2-1.8h3.4v57.1c1.8,0.4,3.4,0.8,4.9,1.3c1.4,0.5,2.8,1,4,1.7V92.8z M337.5,10.1
			c0-2.2,0.8-4,2.4-5.3c1.6-1.3,3.7-2,6.3-2c2.6,0,4.7,0.7,6.2,2c1.5,1.3,2.3,3.1,2.3,5.3s-0.8,4-2.3,5.2c-1.5,1.3-3.6,1.9-6.2,1.9
			c-2.6,0-4.7-0.6-6.3-1.9C338.3,14.1,337.5,12.3,337.5,10.1z"/>
		<path class="st1" d="M405.6,0c0.8,0,1.8,0,2.9,0.1c1.1,0.1,2.3,0.2,3.5,0.3c1.2,0.1,2.4,0.3,3.5,0.5c1.1,0.2,2.1,0.4,2.9,0.7
			c-0.3,2.7-0.7,5.2-1.2,7.6c-0.5,2.3-1.1,4.5-1.9,6.4h-3.5l-6.1-10.6c-2.7,0-5,0.2-6.9,0.7c-1.9,0.5-3.5,1.4-4.7,2.8
			c-1.2,1.4-2.2,3.4-2.8,6c-0.6,2.6-0.9,6.1-0.9,10.4v6.2h16v6.4h-16v49.3c4.8,0.5,9.2,1.5,13.3,2.9v3.1h-35v-3.1
			c2.9-1.5,5.9-2.5,9.2-2.9V37.5h-10.5v-3.3c3.2-1.9,6.8-3.3,10.5-4.2v-4.3c0-5.1,0.7-9.3,2.1-12.6c1.4-3.3,3.3-6,5.8-7.9
			c2.5-1.9,5.4-3.3,8.8-4C398.1,0.4,401.7,0,405.6,0z"/>
		<path class="st1" d="M413.4,32.7c3.4-2,7-3.5,10.7-4.3V17.9c1.2-0.8,2.5-1.6,4.1-2.4c1.6-0.8,3.1-1.5,4.6-2h3.3v16.2h20.1V36
			h-20.1v35.6c0,4.9,0.8,8.4,2.5,10.4c1.7,2,4.2,3.1,7.6,3.1c1.6,0,3.6-0.1,6-0.3c2.4-0.2,4.5-0.6,6.2-1.2l0.9,1.8
			c-0.7,0.7-1.7,1.5-3,2.3c-1.3,0.8-2.8,1.6-4.4,2.3c-1.7,0.7-3.5,1.4-5.4,1.9c-2,0.5-4,0.7-6,0.7c-5.3,0-9.4-1.4-12.2-4.2
			c-2.8-2.8-4.2-7.3-4.2-13.5V36h-10.7V32.7z"/>
		<path class="st1" d="M497.6,77.2c0-2.3-0.8-4.3-2.3-5.9c-1.6-1.6-3.5-3.1-5.9-4.5c-2.4-1.4-5-2.8-7.7-4.1
			c-2.7-1.3-5.3-2.9-7.7-4.6c-2.4-1.8-4.4-3.8-5.9-6.1c-1.6-2.3-2.3-5.1-2.3-8.5c0-2.2,0.6-4.3,1.7-6.2c1.1-1.9,2.6-3.5,4.5-4.9
			c1.9-1.4,4-2.4,6.5-3.2c2.5-0.8,5.1-1.2,8-1.2c4.8,0,8.7,0.2,11.8,0.7c3.1,0.5,6,1.2,8.9,2.1c-0.4,2.6-0.8,5.3-1.3,8
			c-0.5,2.7-1.2,5.4-2.1,8.2h-3.3l-5.1-12.6c-1.1-0.4-2.3-0.7-3.6-0.8c-1.3-0.1-2.7-0.2-4.1-0.2c-1.6,0-3,0.3-4.2,0.8
			c-1.2,0.5-2.2,1.2-3.1,2c-0.8,0.8-1.5,1.8-1.9,2.8c-0.4,1.1-0.7,2.1-0.7,3.2c0,2.2,0.8,4.1,2.3,5.7c1.6,1.6,3.5,3.1,5.9,4.4
			c2.4,1.4,4.9,2.7,7.7,4c2.7,1.3,5.3,2.8,7.7,4.4c2.4,1.6,4.4,3.6,5.9,5.7c1.6,2.2,2.3,4.8,2.3,7.8c0,2.8-0.6,5.3-1.9,7.5
			c-1.3,2.2-3.1,4.1-5.3,5.7c-2.3,1.6-4.9,2.8-7.9,3.6c-3,0.9-6.1,1.3-9.5,1.3c-3.8,0-7.3-0.3-10.5-0.9c-3.2-0.6-6.5-1.5-10-2.7
			c0.2-3,0.6-5.8,1.2-8.6c0.6-2.8,1.4-5.4,2.4-8h3.3l5.9,13.5c1,0.7,2.2,1,3.5,1.1c1.4,0.1,2.6,0.1,3.8,0.1c3.9,0,7.1-1,9.5-3
			C496.4,82.4,497.6,80,497.6,77.2z"/>
	</g>
	<g>
		<path class="st1" d="M759.2,32.7c3.4-2,7-3.5,10.7-4.3V17.9c1.2-0.8,2.5-1.6,4.1-2.4c1.6-0.8,3.1-1.5,4.6-2h3.3v16.2H802V36H782
			v35.6c0,4.9,0.8,8.4,2.5,10.4c1.7,2,4.2,3.1,7.6,3.1c1.6,0,3.6-0.1,6-0.3c2.4-0.2,4.5-0.6,6.2-1.2l0.9,1.8c-0.7,0.7-1.7,1.5-3,2.3
			c-1.3,0.8-2.8,1.6-4.4,2.3c-1.7,0.7-3.5,1.4-5.4,1.9c-2,0.5-4,0.7-6,0.7c-5.3,0-9.4-1.4-12.2-4.2c-2.8-2.8-4.2-7.3-4.2-13.5V36
			h-10.7V32.7z"/>
		<path class="st1" d="M615.3,68.9h3.5c0.4,2.3,0.8,5.2,1.2,8.7c0.4,3.5,0.4,6.9,0.3,10.2c-1.3,1-2.9,1.8-4.8,2.4
			c-1.9,0.6-3.9,1.1-6,1.5c-2.1,0.4-4.2,0.7-6.4,0.9c-2.2,0.2-4.3,0.2-6.2,0.2c-7.5,0-14.2-0.9-20.1-2.7c-5.9-1.8-10.9-4.5-14.9-8.1
			c-4.1-3.6-7.2-8.2-9.4-13.9c-2.2-5.6-3.3-12.3-3.3-20.1c0-8.1,1.2-14.9,3.6-20.5c2.4-5.6,5.7-10.2,9.8-13.8
			c4.1-3.6,8.9-6.2,14.3-7.8c5.4-1.6,11.2-2.5,17.1-2.5c5.9,0,10.9,0.3,14.9,1c4,0.7,7.5,1.7,10.6,3.1c0,1.3,0,2.9-0.1,4.6
			c-0.1,1.8-0.2,3.6-0.4,5.6c-0.2,2-0.4,3.9-0.7,5.8c-0.3,1.9-0.5,3.6-0.8,5.2H614l-7-17.8c-1-0.5-2.6-0.8-4.9-1
			c-2.3-0.2-4.5-0.2-6.7-0.2c-4.5,0-8.7,0.8-12.6,2.3c-4,1.5-7.4,3.9-10.4,7c-3,3.2-5.4,7.2-7.1,12c-1.8,4.8-2.7,10.5-2.7,17
			c0,5.8,0.8,11.1,2.4,15.9c1.6,4.7,3.9,8.8,6.9,12.1c3,3.3,6.7,5.9,11.1,7.7c4.4,1.8,9.3,2.7,14.8,2.7c2.9,0,5.4-0.2,7.3-0.6
			c2-0.4,3.3-0.9,3.9-1.6L615.3,68.9z"/>
		<path class="st1" d="M683.5,82.7c-0.7,1.4-1.9,2.7-3.4,3.9c-1.5,1.2-3.3,2.3-5.3,3.2c-2,0.9-4.2,1.6-6.5,2.2
			c-2.4,0.5-4.8,0.8-7.2,0.8c-5.4,0-10.1-0.8-14.2-2.3c-4.1-1.5-7.5-3.7-10.2-6.5c-2.7-2.8-4.8-6.2-6.2-10.2
			c-1.4-4-2.1-8.4-2.1-13.3c0-10.5,2.7-18.5,8-24.1c5.4-5.5,13-8.3,22.8-8.3c3.2,0,6.3,0.4,9.4,1.2c3.1,0.8,5.8,2.1,8.3,3.9
			c2.4,1.8,4.4,4.2,5.9,7.2c1.5,3,2.3,6.7,2.3,11.2c0,1.4-0.1,2.8-0.2,4.3c-0.1,1.4-0.4,3-0.8,4.6h-42.6c0,3.5,0.5,6.7,1.4,9.7
			c1,3,2.4,5.6,4.3,7.8c1.9,2.2,4.3,4,7.2,5.2c2.9,1.3,6.3,1.9,10.2,1.9c3.2,0,6.4-0.4,9.7-1.2c3.3-0.8,5.7-1.9,7.4-3.2L683.5,82.7z
			 M658.6,33.6c-5.2,0-9.1,1.6-11.9,4.8c-2.7,3.2-4.4,8.7-4.9,16.7h30c0.1-0.7,0.2-1.5,0.2-2.2c0-0.7,0.1-1.4,0.1-2
			c0-5.3-1.1-9.5-3.3-12.6C666.6,35.1,663.2,33.6,658.6,33.6z"/>
		<path class="st1" d="M862.8,82.7c-0.7,1.4-1.9,2.7-3.4,3.9c-1.5,1.2-3.3,2.3-5.3,3.2c-2,0.9-4.2,1.6-6.5,2.2
			c-2.4,0.5-4.8,0.8-7.2,0.8c-5.4,0-10.1-0.8-14.2-2.3c-4.1-1.5-7.5-3.7-10.2-6.5c-2.7-2.8-4.8-6.2-6.2-10.2
			c-1.4-4-2.1-8.4-2.1-13.3c0-10.5,2.7-18.5,8-24.1c5.4-5.5,13-8.3,22.8-8.3c3.2,0,6.3,0.4,9.4,1.2c3.1,0.8,5.8,2.1,8.3,3.9
			c2.4,1.8,4.4,4.2,5.9,7.2c1.5,3,2.3,6.7,2.3,11.2c0,1.4-0.1,2.8-0.2,4.3c-0.1,1.4-0.4,3-0.8,4.6h-42.6c0,3.5,0.5,6.7,1.4,9.7
			c1,3,2.4,5.6,4.3,7.8c1.9,2.2,4.3,4,7.2,5.2c2.9,1.3,6.3,1.9,10.2,1.9c3.2,0,6.4-0.4,9.7-1.2c3.3-0.8,5.7-1.9,7.4-3.2L862.8,82.7z
			 M837.9,33.6c-5.2,0-9.1,1.6-11.9,4.8c-2.7,3.2-4.4,8.7-4.9,16.7h30c0.1-0.7,0.2-1.5,0.2-2.2c0-0.7,0.1-1.4,0.1-2
			c0-5.3-1.1-9.5-3.3-12.6C845.9,35.1,842.5,33.6,837.9,33.6z"/>
		<path class="st1" d="M762.7,92.8h-28.4v-3.1c2.4-1.2,5-2.1,7.8-3V57.5c0-6.3-1-11.2-2.9-14.8c-1.9-3.6-5.5-5.4-10.6-5.4
			c-2.2,0-4.3,0.4-6.2,1.1c-1.9,0.7-3.6,1.7-5,3c-1.5,1.3-2.7,2.7-3.8,4.3c-1.1,1.6-1.9,3.3-2.5,5v36c2.7,0.5,5.4,1.5,7.9,3v3.1
			h-28.6v-3.1c2.2-1.1,5.1-2.1,8.7-3V38.3l-8.7-1v-3.2c2.3-0.9,4.9-1.7,7.9-2.5c3-0.7,6.1-1.4,9.4-2h3.3v13.8h0.1
			c1.9-3.8,4.5-7,8-9.7c3.5-2.7,7.7-4.1,12.6-4.1c3.5,0,6.7,0.4,9.5,1.2c2.8,0.8,5.1,2.2,6.9,4.1c1.9,2,3.3,4.6,4.2,8
			c1,3.3,1.5,7.5,1.5,12.6v31.2c3.5,0.6,6.4,1.6,8.7,3V92.8z"/>
		<path class="st1" d="M901.9,40.4c-1,0.5-2.3,1.5-3.9,3c-1.6,1.5-3,3.8-4.2,6.7v36.6c1.9,0.2,3.8,0.5,5.7,0.9
			c1.9,0.5,3.8,1.1,5.7,2v3.1h-33.6v-3.1c1.7-0.8,3.3-1.4,4.8-1.9c1.5-0.4,3-0.8,4.5-1.1V38.3l-9.4-1v-3.2c3-1.2,6.2-2.1,9.4-2.8
			c3.2-0.7,6.3-1.3,9.2-1.7h3.6v13.1h0.6c0.9-1.6,2.1-3.3,3.6-4.9c1.6-1.6,3.4-3.1,5.4-4.4c2-1.3,4.3-2.3,6.7-3
			c2.4-0.7,4.9-0.9,7.5-0.7c0.7,1.1,1.3,2.2,1.8,3.5c0.5,1.3,1,2.6,1.5,4v3.2H901.9z"/>
	</g>
	<g>
		<g>
			<path class="st1" d="M260.4,123.8H254v4.5h6.2v2.7H254v8.9h-2.8v-18.8h9.3V123.8z"/>
			<path class="st1" d="M270,131.9l5.8,8h-3.4l-5.3-7.7h-0.5v7.7h-2.8v-18.8h3.3c2.5,0,4.2,0.5,5.3,1.4c1.2,1,1.8,2.4,1.8,4.1
				c0,1.3-0.4,2.5-1.1,3.4C272.2,131.1,271.2,131.7,270,131.9z M266.5,129.8h0.9c2.7,0,4-1,4-3.1c0-1.9-1.3-2.9-3.9-2.9h-1V129.8z"
				/>
			<path class="st1" d="M289.4,135.4h-8l-2.1,4.6h-3l9.2-20l8.9,20h-3.1L289.4,135.4z M288.3,132.7l-2.8-6.4l-2.9,6.4H288.3z"/>
			<path class="st1" d="M305.5,130.2h7.7v0.6c0,1.4-0.2,2.7-0.5,3.7c-0.3,1-0.9,1.9-1.6,2.8c-1.7,2-3.9,2.9-6.6,2.9
				c-2.6,0-4.8-0.9-6.7-2.8c-1.9-1.9-2.8-4.2-2.8-6.9c0-2.7,0.9-5,2.8-6.9c1.9-1.9,4.2-2.9,6.9-2.9c1.5,0,2.8,0.3,4.1,0.9
				c1.2,0.6,2.4,1.6,3.6,2.9l-2,1.9c-1.5-2.1-3.4-3.1-5.6-3.1c-2,0-3.6,0.7-4.9,2.1c-1.3,1.3-2,3-2,5.1c0,2.1,0.7,3.8,2.2,5.2
				c1.4,1.3,2.9,1.9,4.5,1.9c1.4,0,2.6-0.5,3.7-1.4c1.1-0.9,1.7-2.1,1.8-3.4h-4.6V130.2z"/>
			<path class="st1" d="M323,131.9l5.8,8h-3.4l-5.3-7.7h-0.5v7.7h-2.8v-18.8h3.3c2.5,0,4.2,0.5,5.3,1.4c1.2,1,1.8,2.4,1.8,4.1
				c0,1.3-0.4,2.5-1.1,3.4C325.2,131.1,324.2,131.7,323,131.9z M319.5,129.8h0.9c2.7,0,4-1,4-3.1c0-1.9-1.3-2.9-3.9-2.9h-1V129.8z"
				/>
			<path class="st1" d="M342.5,135.4h-8l-2.1,4.6h-3l9.2-20l8.9,20h-3.1L342.5,135.4z M341.3,132.7l-2.8-6.4l-2.9,6.4H341.3z"/>
			<path class="st1" d="M349.8,139.9v-20.1l13.6,14.3v-13.1h2.8v19.9l-13.6-14.3v13.2H349.8z"/>
			<path class="st1" d="M384.5,122.2v3.4c-1.6-1.4-3.3-2.1-5-2.1c-1.9,0-3.5,0.7-4.8,2.1c-1.3,1.4-2,3.1-2,5.1c0,2,0.7,3.6,2,5
				c1.3,1.4,2.9,2,4.8,2c1,0,1.8-0.2,2.5-0.5c0.4-0.2,0.8-0.4,1.2-0.7c0.4-0.3,0.8-0.6,1.3-1v3.4c-1.6,0.9-3.3,1.4-5.1,1.4
				c-2.7,0-4.9-0.9-6.8-2.8c-1.9-1.9-2.8-4.2-2.8-6.8c0-2.4,0.8-4.5,2.3-6.4c1.9-2.3,4.4-3.4,7.5-3.4
				C381.3,120.8,383,121.2,384.5,122.2z"/>
			<path class="st1" d="M398.3,123.8h-7.4v4.5h7.2v2.7h-7.2v6.3h7.4v2.7H388v-18.8h10.3V123.8z"/>
			<path class="st1" d="M412.5,123.9l-2.3,1.4c-0.4-0.7-0.8-1.2-1.2-1.5c-0.4-0.3-0.9-0.4-1.6-0.4c-0.8,0-1.4,0.2-1.9,0.7
				c-0.5,0.4-0.8,1-0.8,1.7c0,0.9,0.7,1.7,2,2.2l1.9,0.8c1.5,0.6,2.6,1.4,3.3,2.3c0.7,0.9,1,2,1,3.3c0,1.7-0.6,3.2-1.7,4.3
				c-1.1,1.1-2.6,1.7-4.3,1.7c-1.6,0-2.9-0.5-4-1.4c-1-1-1.7-2.3-1.9-4.1l2.8-0.6c0.1,1.1,0.4,1.9,0.7,2.3c0.6,0.8,1.4,1.2,2.5,1.2
				c0.9,0,1.6-0.3,2.2-0.9c0.6-0.6,0.9-1.3,0.9-2.3c0-0.4-0.1-0.7-0.2-1c-0.1-0.3-0.3-0.6-0.5-0.8c-0.2-0.3-0.5-0.5-0.8-0.7
				c-0.3-0.2-0.7-0.4-1.2-0.6l-1.8-0.8c-2.5-1.1-3.8-2.7-3.8-4.8c0-1.4,0.5-2.6,1.6-3.5c1.1-1,2.4-1.4,4-1.4
				C409.6,120.8,411.3,121.8,412.5,123.9z"/>
		</g>
		<g>
			<path class="st1" d="M477,122.4v3.4c-1.6-1.4-3.3-2.1-5-2.1c-1.9,0-3.5,0.7-4.8,2.1c-1.3,1.4-2,3.1-2,5.1c0,2,0.7,3.6,2,5
				c1.3,1.4,2.9,2,4.8,2c1,0,1.8-0.2,2.5-0.5c0.4-0.2,0.8-0.4,1.2-0.7c0.4-0.3,0.8-0.6,1.3-1v3.4c-1.6,0.9-3.3,1.4-5.1,1.4
				c-2.7,0-4.9-0.9-6.8-2.8c-1.9-1.9-2.8-4.2-2.8-6.8c0-2.4,0.8-4.5,2.3-6.4c1.9-2.3,4.4-3.4,7.5-3.4
				C473.8,121.1,475.4,121.5,477,122.4z"/>
			<path class="st1" d="M479.4,130.7c0-2.6,1-4.9,2.9-6.8c1.9-1.9,4.2-2.8,6.9-2.8c2.6,0,4.9,1,6.8,2.9c1.9,1.9,2.9,4.2,2.9,6.9
				c0,2.7-1,5-2.9,6.9c-1.9,1.9-4.2,2.8-6.9,2.8c-2.4,0-4.6-0.8-6.5-2.5C480.5,136.2,479.4,133.8,479.4,130.7z M482.3,130.8
				c0,2.1,0.7,3.8,2.1,5.1c1.4,1.3,3,2,4.8,2c1.9,0,3.6-0.7,4.9-2c1.3-1.4,2-3.1,2-5c0-2-0.7-3.7-2-5c-1.3-1.4-2.9-2-4.9-2
				c-1.9,0-3.6,0.7-4.9,2C482.9,127.1,482.3,128.8,482.3,130.8z"/>
			<path class="st1" d="M512.9,124.2l-2.3,1.4c-0.4-0.7-0.8-1.2-1.2-1.5c-0.4-0.3-0.9-0.4-1.6-0.4c-0.8,0-1.4,0.2-1.9,0.7
				c-0.5,0.4-0.8,1-0.8,1.7c0,0.9,0.7,1.7,2,2.2l1.9,0.8c1.5,0.6,2.6,1.4,3.3,2.3s1,2,1,3.3c0,1.7-0.6,3.2-1.7,4.3
				c-1.1,1.1-2.6,1.7-4.3,1.7c-1.6,0-2.9-0.5-4-1.4c-1-1-1.7-2.3-1.9-4.1l2.8-0.6c0.1,1.1,0.4,1.9,0.7,2.3c0.6,0.8,1.4,1.2,2.5,1.2
				c0.9,0,1.6-0.3,2.2-0.9c0.6-0.6,0.9-1.3,0.9-2.3c0-0.4-0.1-0.7-0.2-1c-0.1-0.3-0.3-0.6-0.5-0.8c-0.2-0.3-0.5-0.5-0.8-0.7
				c-0.3-0.2-0.7-0.4-1.2-0.6l-1.8-0.8c-2.5-1.1-3.8-2.7-3.8-4.8c0-1.4,0.5-2.6,1.6-3.5c1.1-1,2.4-1.4,4-1.4
				C510,121.1,511.7,122.1,512.9,124.2z"/>
			<path class="st1" d="M516.1,140.2L520,120l6.4,14.6L533,120l3.5,20.2h-2.9l-1.8-11.3l-5.5,12.2l-5.3-12.2l-2,11.4H516.1z"/>
			<path class="st1" d="M550.7,124.1h-7.4v4.5h7.2v2.7h-7.2v6.3h7.4v2.7h-10.3v-18.8h10.3V124.1z"/>
			<path class="st1" d="M559.5,124.1v16.1h-2.8v-16.1h-4.3v-2.7h11.3v2.7H559.5z"/>
			<path class="st1" d="M569.1,121.4v18.8h-2.8v-18.8H569.1z"/>
			<path class="st1" d="M587.3,122.4v3.4c-1.6-1.4-3.3-2.1-5-2.1c-1.9,0-3.5,0.7-4.8,2.1c-1.3,1.4-2,3.1-2,5.1c0,2,0.7,3.6,2,5
				c1.3,1.4,2.9,2,4.8,2c1,0,1.8-0.2,2.5-0.5c0.4-0.2,0.8-0.4,1.2-0.7c0.4-0.3,0.8-0.6,1.3-1v3.4c-1.6,0.9-3.3,1.4-5.1,1.4
				c-2.7,0-4.9-0.9-6.8-2.8c-1.9-1.9-2.8-4.2-2.8-6.8c0-2.4,0.8-4.5,2.3-6.4c1.9-2.3,4.4-3.4,7.5-3.4
				C584.1,121.1,585.7,121.5,587.3,122.4z"/>
			<path class="st1" d="M601.3,124.2l-2.3,1.4c-0.4-0.7-0.8-1.2-1.2-1.5c-0.4-0.3-0.9-0.4-1.6-0.4c-0.8,0-1.4,0.2-1.9,0.7
				c-0.5,0.4-0.8,1-0.8,1.7c0,0.9,0.7,1.7,2,2.2l1.9,0.8c1.5,0.6,2.6,1.4,3.3,2.3s1,2,1,3.3c0,1.7-0.6,3.2-1.7,4.3
				c-1.1,1.1-2.6,1.7-4.3,1.7c-1.6,0-2.9-0.5-4-1.4c-1-1-1.7-2.3-1.9-4.1l2.8-0.6c0.1,1.1,0.4,1.9,0.7,2.3c0.6,0.8,1.4,1.2,2.5,1.2
				c0.9,0,1.6-0.3,2.2-0.9c0.6-0.6,0.9-1.3,0.9-2.3c0-0.4-0.1-0.7-0.2-1c-0.1-0.3-0.3-0.6-0.5-0.8c-0.2-0.3-0.5-0.5-0.8-0.7
				c-0.3-0.2-0.7-0.4-1.2-0.6l-1.8-0.8c-2.5-1.1-3.8-2.7-3.8-4.8c0-1.4,0.5-2.6,1.6-3.5c1.1-1,2.4-1.4,4-1.4
				C598.5,121.1,600.1,122.1,601.3,124.2z"/>
		</g>
		<g>
			<path class="st1" d="M654.2,121.1l4.8,12.6l5.1-13.5l4.8,13.5l5.1-12.6h3l-8.3,20l-4.8-13.3l-5,13.3l-7.9-20H654.2z"/>
			<path class="st1" d="M688.8,135.3h-8l-2.1,4.6h-3l9.2-20l8.9,20h-3.1L688.8,135.3z M687.7,132.7l-2.8-6.4l-2.9,6.4H687.7z"/>
			<path class="st1" d="M700.2,123.8v16.1h-2.8v-16.1h-4.3v-2.7h11.3v2.7H700.2z"/>
			<path class="st1" d="M720.1,122.1v3.4c-1.6-1.4-3.3-2.1-5-2.1c-1.9,0-3.5,0.7-4.8,2.1c-1.3,1.4-2,3.1-2,5.1c0,2,0.7,3.6,2,5
				c1.3,1.4,2.9,2,4.8,2c1,0,1.8-0.2,2.5-0.5c0.4-0.2,0.8-0.4,1.2-0.7c0.4-0.3,0.8-0.6,1.3-1v3.4c-1.6,0.9-3.3,1.4-5.1,1.4
				c-2.7,0-4.9-0.9-6.8-2.8c-1.9-1.9-2.8-4.2-2.8-6.8c0-2.4,0.8-4.5,2.3-6.4c1.9-2.3,4.4-3.4,7.5-3.4
				C716.9,120.7,718.5,121.2,720.1,122.1z"/>
			<path class="st1" d="M726.9,128.4h8v-7.4h2.8v18.8h-2.8v-8.8h-8v8.8h-2.8v-18.8h2.8V128.4z"/>
			<path class="st1" d="M752.5,123.8H745v4.5h7.2v2.7H745v6.3h7.4v2.7h-10.3v-18.8h10.3V123.8z"/>
			<path class="st1" d="M766.6,123.9l-2.3,1.4c-0.4-0.7-0.8-1.2-1.2-1.5c-0.4-0.3-0.9-0.4-1.6-0.4c-0.8,0-1.4,0.2-1.9,0.7
				c-0.5,0.4-0.8,1-0.8,1.7c0,0.9,0.7,1.7,2,2.2l1.9,0.8c1.5,0.6,2.6,1.4,3.3,2.3c0.7,0.9,1,2,1,3.3c0,1.7-0.6,3.2-1.7,4.3
				c-1.1,1.1-2.6,1.7-4.3,1.7c-1.6,0-2.9-0.5-4-1.4c-1-1-1.7-2.3-1.9-4.1l2.8-0.6c0.1,1.1,0.4,1.9,0.7,2.3c0.6,0.8,1.4,1.2,2.5,1.2
				c0.9,0,1.6-0.3,2.2-0.9c0.6-0.6,0.9-1.3,0.9-2.3c0-0.4-0.1-0.7-0.2-1c-0.1-0.3-0.3-0.6-0.5-0.8c-0.2-0.3-0.5-0.5-0.8-0.7
				s-0.7-0.4-1.2-0.6l-1.8-0.8c-2.5-1.1-3.8-2.7-3.8-4.8c0-1.4,0.5-2.6,1.6-3.5c1.1-1,2.4-1.4,4-1.4
				C763.8,120.7,765.4,121.8,766.6,123.9z"/>
		</g>
		<g>
			<path class="st1" d="M824.3,121.1v12.2c0,1.5-0.1,2.5-0.3,3.3c-0.2,0.8-0.5,1.5-1,2.1c-0.9,1.1-2.2,1.7-3.7,1.7
				c-1.2,0-2.3-0.3-3.3-0.9l1.4-2.4c0.7,0.5,1.3,0.7,1.9,0.7c0.8,0,1.4-0.3,1.7-1c0.3-0.6,0.5-1.8,0.5-3.4v-12.2H824.3z"/>
			<path class="st1" d="M839,123.8h-7.4v4.5h7.2v2.7h-7.2v6.3h7.4v2.7h-10.3v-18.8H839V123.8z"/>
			<path class="st1" d="M843.6,121.1l4.8,12.6l5.1-13.5l4.8,13.5l5.1-12.6h3l-8.3,20l-4.8-13.3l-5,13.3l-7.9-20H843.6z"/>
			<path class="st1" d="M879.1,123.8h-7.4v4.5h7.2v2.7h-7.2v6.3h7.4v2.7h-10.3v-18.8h10.3V123.8z"/>
			<path class="st1" d="M885.6,121.1v16.1h5.5v2.7h-8.3v-18.8H885.6z"/>
			<path class="st1" d="M900,131.9l5.8,8h-3.4l-5.3-7.7h-0.5v7.7h-2.8v-18.8h3.3c2.5,0,4.2,0.5,5.3,1.4c1.2,1,1.8,2.4,1.8,4.1
				c0,1.3-0.4,2.5-1.1,3.4C902.2,131,901.2,131.6,900,131.9z M896.5,129.7h0.9c2.7,0,4-1,4-3.1c0-1.9-1.3-2.9-3.9-2.9h-1V129.7z"/>
			<path class="st1" d="M911.5,131.8l-6.1-10.7h3.2l4.2,7.5l4.3-7.5h3.2l-6.1,10.7v8.1h-2.8V131.8z"/>
		</g>
		<ellipse class="st1" cx="437.8" cy="130.5" rx="3.1" ry="3.2"/>
		<ellipse class="st1" cx="627.2" cy="130.5" rx="3.1" ry="3.2"/>
		<ellipse class="st1" cx="792.4" cy="130.5" rx="3.1" ry="3.2"/>
	</g>
	<path class="st1" d="M123.5,26.9c0,0,21.3,5.6,21.3,42.9c0,0,1.9,45.5-20.9,45.5c0,0,35.1,5.4,35.1-45.5
		C159.1,69.8,158.7,26.9,123.5,26.9z"/>
</g>
</svg>
