<svg width="23" height="23" viewBox="0 0 23 23" fill="none" xmlns="http://www.w3.org/2000/svg">
<g clip-path="url(#clip0_1247_7391)">
<path d="M11.5231 1.44336C10.3744 1.44488 9.2733 1.90184 8.46111 2.71404C7.64891 3.52623 7.19195 4.62737 7.19043 5.77598V7.20199H4.31543V23.0059H18.6847V7.20199H15.8542V5.77598C15.8527 4.62762 15.396 3.5267 14.5841 2.71454C13.7722 1.90239 12.6714 1.44526 11.5231 1.44336ZM11.5231 2.88086C13.1388 2.88086 14.4167 4.16023 14.4167 5.77598V7.20199H8.62793V5.77598C8.62793 4.1588 9.9073 2.88086 11.5231 2.88086ZM5.75293 8.63949H7.19043V11.5059H8.62793V8.63949H14.4167V11.5059H15.8542V8.63949H17.2472V21.5684H5.75293V8.63949Z" fill="#002855"/>
</g>
<defs>
<clipPath id="clip0_1247_7391">
<rect width="23" height="23" fill="white"/>
</clipPath>
</defs>
</svg>
