<svg width="18" height="18" viewBox="0 0 18 18" fill="none" xmlns="http://www.w3.org/2000/svg">
<path fill-rule="evenodd" clip-rule="evenodd" d="M9.00011 8.99999C7.00481 8.99999 5.38301 7.38539 5.38301 5.39999C5.38301 3.41459 7.00481 1.79999 9.00011 1.79999C10.9954 1.79999 12.6172 3.41459 12.6172 5.39999C12.6172 7.38539 10.9954 8.99999 9.00011 8.99999ZM12.3985 9.60566C13.1421 9.01354 13.7156 8.23496 14.0606 7.34918C14.4055 6.4634 14.5096 5.50203 14.3623 4.56294C14.005 2.20224 12.0322 0.313179 9.64991 0.0377792C6.36311 -0.342921 3.57491 2.20409 3.57491 5.39999C3.57491 7.10099 4.36691 8.61656 5.60171 9.60566C2.56691 10.7406 0.351105 13.4055 0.00370534 17.0019C-0.00844109 17.128 0.00586896 17.2553 0.0457143 17.3756C0.0855597 17.4959 0.150067 17.6066 0.235112 17.7005C0.320156 17.7944 0.423866 17.8695 0.539612 17.9211C0.655358 17.9727 0.780594 17.9996 0.90731 18C1.12943 18.0018 1.34419 17.9206 1.50952 17.7722C1.67484 17.6239 1.7788 17.4191 1.80101 17.1981C2.16371 13.1814 5.25341 10.8 9.00011 10.8C12.7468 10.8 15.8365 13.1814 16.1992 17.1981C16.2214 17.4191 16.3254 17.6239 16.4907 17.7722C16.656 17.9206 16.8708 18.0018 17.0929 18C17.6293 18 18.0469 17.5338 17.9956 17.0019C17.6491 13.4055 15.4333 10.7406 12.3976 9.60566" fill="#002855"/>
</svg>
