<svg width="49" height="49" viewBox="0 0 49 49" fill="none" xmlns="http://www.w3.org/2000/svg">
<g clip-path="url(#clip0_506_6491)">
<path d="M16.5013 24.5C16.5013 20.0819 20.0819 16.4994 24.5 16.4994C28.9181 16.4994 32.5006 20.0819 32.5006 24.5C32.5006 28.9181 28.9181 32.5006 24.5 32.5006C20.0819 32.5006 16.5013 28.9181 16.5013 24.5ZM12.1763 24.5C12.1763 31.3064 17.6936 36.8237 24.5 36.8237C31.3064 36.8237 36.8237 31.3064 36.8237 24.5C36.8237 17.6936 31.3064 12.1763 24.5 12.1763C17.6936 12.1763 12.1763 17.6936 12.1763 24.5ZM34.4316 11.6876C34.4314 12.2573 34.6 12.8141 34.9163 13.2879C35.2326 13.7616 35.6822 14.1309 36.2084 14.3491C36.7346 14.5673 37.3136 14.6246 37.8723 14.5137C38.431 14.4028 38.9443 14.1287 39.3472 13.7261C39.7502 13.3235 40.0247 12.8104 40.136 12.2518C40.2474 11.6932 40.1906 11.1141 39.9728 10.5877C39.755 10.0614 39.3861 9.61146 38.9126 9.29481C38.4391 8.97816 37.8823 8.80903 37.3127 8.8088H37.3116C36.5481 8.80916 35.8159 9.11254 35.2759 9.65232C34.7359 10.1921 34.4322 10.9241 34.4316 11.6876ZM14.804 44.0354C12.4641 43.9289 11.1923 43.5391 10.3471 43.2098C9.22659 42.7736 8.4271 42.2541 7.58653 41.4146C6.74595 40.5752 6.22563 39.7765 5.79133 38.656C5.46186 37.8112 5.0721 36.539 4.96573 34.1991C4.84938 31.6693 4.82614 30.9093 4.82614 24.5002C4.82614 18.091 4.8513 17.3332 4.96573 14.8013C5.07229 12.4614 5.46493 11.1917 5.79133 10.3444C6.22755 9.2239 6.7471 8.42442 7.58653 7.58384C8.42595 6.74326 9.22467 6.22294 10.3471 5.78864C11.1919 5.45917 12.4641 5.06941 14.804 4.96304C17.3338 4.84669 18.0937 4.82346 24.5 4.82346C30.9063 4.82346 31.667 4.84861 34.1989 4.96304C36.5388 5.0696 37.8085 5.46224 38.6558 5.78864C39.7763 6.22294 40.5758 6.74442 41.4164 7.58384C42.2569 8.42326 42.7753 9.2239 43.2116 10.3444C43.541 11.1892 43.9308 12.4614 44.0372 14.8013C44.1535 17.3332 44.1767 18.091 44.1767 24.5002C44.1767 30.9093 44.1535 31.6672 44.0372 34.1991C43.9306 36.539 43.5389 37.8108 43.2116 38.656C42.7753 39.7765 42.2558 40.576 41.4164 41.4146C40.5769 42.2533 39.7763 42.7736 38.6558 43.2098C37.811 43.5393 36.5388 43.9291 34.1989 44.0354C31.6691 44.1518 30.9092 44.175 24.5 44.175C18.0908 44.175 17.333 44.1518 14.804 44.0354ZM14.6053 0.645344C12.0503 0.761696 10.3045 1.16682 8.77981 1.7601C7.2008 2.37277 5.8641 3.19472 4.52835 4.52835C3.19261 5.86198 2.37277 7.2008 1.7601 8.77981C1.16682 10.3054 0.761696 12.0503 0.645344 14.6053C0.527072 17.1643 0.5 17.9824 0.5 24.5C0.5 31.0176 0.527072 31.8357 0.645344 34.3947C0.761696 36.9499 1.16682 38.6946 1.7601 40.2202C2.37277 41.7982 3.1928 43.1386 4.52835 44.4716C5.8639 45.8047 7.2008 46.6255 8.77981 47.2399C10.3074 47.8332 12.0503 48.2383 14.6053 48.3547C17.1656 48.471 17.9824 48.5 24.5 48.5C31.0176 48.5 31.8357 48.4729 34.3947 48.3547C36.9499 48.2383 38.6946 47.8332 40.2202 47.2399C41.7982 46.6255 43.1359 45.8053 44.4716 44.4716C45.8074 43.138 46.6255 41.7982 47.2399 40.2202C47.8332 38.6946 48.2402 36.9497 48.3547 34.3947C48.471 31.8338 48.4981 31.0176 48.4981 24.5C48.4981 17.9824 48.471 17.1643 48.3547 14.6053C48.2383 12.0501 47.8332 10.3045 47.2399 8.77981C46.6255 7.20176 45.8053 5.8641 44.4716 4.52835C43.138 3.19261 41.7982 2.37277 40.2221 1.7601C38.6946 1.16682 36.9497 0.759776 34.3966 0.645344C31.8377 0.528992 31.0196 0.5 24.5019 0.5C17.9843 0.5 17.1656 0.527072 14.6053 0.645344Z" fill="url(#paint0_radial_506_6491)"/>
<path d="M16.5013 24.5C16.5013 20.0819 20.0819 16.4994 24.5 16.4994C28.9181 16.4994 32.5006 20.0819 32.5006 24.5C32.5006 28.9181 28.9181 32.5006 24.5 32.5006C20.0819 32.5006 16.5013 28.9181 16.5013 24.5ZM12.1763 24.5C12.1763 31.3064 17.6936 36.8237 24.5 36.8237C31.3064 36.8237 36.8237 31.3064 36.8237 24.5C36.8237 17.6936 31.3064 12.1763 24.5 12.1763C17.6936 12.1763 12.1763 17.6936 12.1763 24.5ZM34.4316 11.6876C34.4314 12.2573 34.6 12.8141 34.9163 13.2879C35.2326 13.7616 35.6822 14.1309 36.2084 14.3491C36.7346 14.5673 37.3136 14.6246 37.8723 14.5137C38.431 14.4028 38.9443 14.1287 39.3472 13.7261C39.7502 13.3235 40.0247 12.8104 40.136 12.2518C40.2474 11.6932 40.1906 11.1141 39.9728 10.5877C39.755 10.0614 39.3861 9.61146 38.9126 9.29481C38.4391 8.97816 37.8823 8.80903 37.3127 8.8088H37.3116C36.5481 8.80916 35.8159 9.11254 35.2759 9.65232C34.7359 10.1921 34.4322 10.9241 34.4316 11.6876ZM14.804 44.0354C12.4641 43.9289 11.1923 43.5391 10.3471 43.2098C9.22659 42.7736 8.4271 42.2541 7.58653 41.4146C6.74595 40.5752 6.22563 39.7765 5.79133 38.656C5.46186 37.8112 5.0721 36.539 4.96573 34.1991C4.84938 31.6693 4.82614 30.9093 4.82614 24.5002C4.82614 18.091 4.8513 17.3332 4.96573 14.8013C5.07229 12.4614 5.46493 11.1917 5.79133 10.3444C6.22755 9.2239 6.7471 8.42442 7.58653 7.58384C8.42595 6.74326 9.22467 6.22294 10.3471 5.78864C11.1919 5.45917 12.4641 5.06941 14.804 4.96304C17.3338 4.84669 18.0937 4.82346 24.5 4.82346C30.9063 4.82346 31.667 4.84861 34.1989 4.96304C36.5388 5.0696 37.8085 5.46224 38.6558 5.78864C39.7763 6.22294 40.5758 6.74442 41.4164 7.58384C42.2569 8.42326 42.7753 9.2239 43.2116 10.3444C43.541 11.1892 43.9308 12.4614 44.0372 14.8013C44.1535 17.3332 44.1767 18.091 44.1767 24.5002C44.1767 30.9093 44.1535 31.6672 44.0372 34.1991C43.9306 36.539 43.5389 37.8108 43.2116 38.656C42.7753 39.7765 42.2558 40.576 41.4164 41.4146C40.5769 42.2533 39.7763 42.7736 38.6558 43.2098C37.811 43.5393 36.5388 43.9291 34.1989 44.0354C31.6691 44.1518 30.9092 44.175 24.5 44.175C18.0908 44.175 17.333 44.1518 14.804 44.0354ZM14.6053 0.645344C12.0503 0.761696 10.3045 1.16682 8.77981 1.7601C7.2008 2.37277 5.8641 3.19472 4.52835 4.52835C3.19261 5.86198 2.37277 7.2008 1.7601 8.77981C1.16682 10.3054 0.761696 12.0503 0.645344 14.6053C0.527072 17.1643 0.5 17.9824 0.5 24.5C0.5 31.0176 0.527072 31.8357 0.645344 34.3947C0.761696 36.9499 1.16682 38.6946 1.7601 40.2202C2.37277 41.7982 3.1928 43.1386 4.52835 44.4716C5.8639 45.8047 7.2008 46.6255 8.77981 47.2399C10.3074 47.8332 12.0503 48.2383 14.6053 48.3547C17.1656 48.471 17.9824 48.5 24.5 48.5C31.0176 48.5 31.8357 48.4729 34.3947 48.3547C36.9499 48.2383 38.6946 47.8332 40.2202 47.2399C41.7982 46.6255 43.1359 45.8053 44.4716 44.4716C45.8074 43.138 46.6255 41.7982 47.2399 40.2202C47.8332 38.6946 48.2402 36.9497 48.3547 34.3947C48.471 31.8338 48.4981 31.0176 48.4981 24.5C48.4981 17.9824 48.471 17.1643 48.3547 14.6053C48.2383 12.0501 47.8332 10.3045 47.2399 8.77981C46.6255 7.20176 45.8053 5.8641 44.4716 4.52835C43.138 3.19261 41.7982 2.37277 40.2221 1.7601C38.6946 1.16682 36.9497 0.759776 34.3966 0.645344C31.8377 0.528992 31.0196 0.5 24.5019 0.5C17.9843 0.5 17.1656 0.527072 14.6053 0.645344Z" fill="#002855"/>
</g>
<defs>
<radialGradient id="paint0_radial_506_6491" cx="0" cy="0" r="1" gradientUnits="userSpaceOnUse" gradientTransform="translate(6.87709 48.7268) scale(62.66 62.66)">
<stop offset="0.09" stop-color="#FA8F21"/>
<stop offset="0.78" stop-color="#D82D7E"/>
</radialGradient>
<clipPath id="clip0_506_6491">
<rect width="48" height="48" fill="white" transform="translate(0.5 0.5)"/>
</clipPath>
</defs>
</svg>
