<svg width="107" height="44" viewBox="0 0 107 44" fill="none" xmlns="http://www.w3.org/2000/svg">
<path fill-rule="evenodd" clip-rule="evenodd" d="M18.8149 17.2991C18.7959 17.3179 18.7769 17.3743 18.7769 17.3931C17.5416 19.7059 15.1089 21.2854 12.3341 21.2854C8.30497 21.2854 4.99805 17.9384 4.99805 13.8204C4.99805 9.72128 8.30497 6.35547 12.3341 6.35547C15.1279 6.35547 17.5606 7.97256 18.7959 10.323C18.8339 10.3606 18.8339 10.3982 18.8719 10.4546C18.8909 10.4734 16.5343 12.1469 16.5153 12.1093C16.4963 12.0717 16.4963 12.0341 16.4773 12.0153C15.7931 10.3418 14.1966 9.23239 12.3531 9.27C9.88242 9.2888 7.84885 11.3196 7.84885 13.8204C7.81084 16.3777 9.84441 18.4273 12.3151 18.4273C14.1016 18.4273 15.66 17.3367 16.3822 15.7948C16.4202 15.7384 16.4202 15.7008 16.4583 15.6444L18.8149 17.2991Z" fill="white"/>
<path fill-rule="evenodd" clip-rule="evenodd" d="M21.8555 6.5249H24.6683V11.7334H32.0803V6.5249H34.9311V21.0223H32.0803V14.648H24.6683V21.0223H21.8555V6.5249Z" fill="white"/>
<path fill-rule="evenodd" clip-rule="evenodd" d="M74.7852 21.0223V6.5249H85.029V9.43943H77.636V12.3352H84.4779V15.2309H77.636V18.1266H86.0743V21.0223H74.7852Z" fill="white"/>
<path fill-rule="evenodd" clip-rule="evenodd" d="M90.0859 21.0223V6.5249H92.9557V18.1266H100.919V21.0223H90.0859Z" fill="white"/>
<path fill-rule="evenodd" clip-rule="evenodd" d="M59.3718 21.0223H59.2957H56.502V6.5249H56.711H60.4931L66.7648 15.2309V6.5249H69.6156V21.0223H67.354L59.3718 10.0787V21.0223Z" fill="white"/>
<path fill-rule="evenodd" clip-rule="evenodd" d="M41.9262 18.1266L40.6148 21.0035H37.2129L43.7127 6.5249H47.6848L54.2227 21.0223H50.8207L49.5093 18.1454H41.9262V18.1266ZM45.7083 9.43943L43.2186 15.2309H48.331L45.7083 9.43943Z" fill="white"/>
<path d="M97.3404 32.1743C97.1693 32.1931 96.9983 32.2119 96.8273 32.2119C96.6752 32.2119 96.5042 32.2119 96.3521 32.1931C96.2001 32.1743 96.048 32.1555 95.896 32.1179C95.7439 32.0803 95.6109 32.0427 95.4779 31.9863C95.3448 31.9299 95.2308 31.8735 95.1168 31.817C95.0027 31.7418 94.8887 31.6854 94.7937 31.5914C94.6987 31.5162 94.6226 31.4222 94.5466 31.347C94.4706 31.2529 94.4136 31.1589 94.3566 31.0649C94.2996 30.9709 94.2615 30.8581 94.2425 30.7452L94.2235 30.67L94.2995 30.6512L95.1168 30.4256L95.2308 30.388V30.5008C95.2308 30.5384 95.2308 30.5948 95.2498 30.6324C95.2688 30.67 95.2878 30.7264 95.3258 30.7641C95.3638 30.8017 95.4209 30.8581 95.4589 30.8957C95.5159 30.9333 95.5729 30.9709 95.6489 31.0085C95.801 31.0837 95.953 31.1401 96.1621 31.1777C96.3521 31.2153 96.5612 31.2341 96.7892 31.2341C97.0173 31.2341 97.2264 31.2153 97.4164 31.1777C97.6065 31.1401 97.7775 31.0837 97.9296 31.0085C98.0056 30.9709 98.0626 30.9333 98.1196 30.8957C98.1766 30.8581 98.2146 30.8205 98.2527 30.7641C98.2907 30.7264 98.3097 30.67 98.3287 30.6324C98.3477 30.5948 98.3477 30.5384 98.3477 30.5008C98.3477 30.4256 98.3287 30.3692 98.3097 30.3316C98.2907 30.2752 98.2527 30.2376 98.2146 30.1999C98.1576 30.1623 98.1006 30.1247 98.0246 30.0871C97.9486 30.0495 97.8726 30.0119 97.7775 29.9931C97.6825 29.9555 97.5875 29.9367 97.4924 29.9179C97.3784 29.8991 97.2834 29.8615 97.1503 29.8427C97.0173 29.8239 96.9033 29.8051 96.7892 29.7675C96.6562 29.7487 96.5232 29.7111 96.4091 29.6923C96.2951 29.6735 96.1621 29.6358 96.029 29.617C95.915 29.5794 95.782 29.5606 95.6679 29.523C95.5349 29.4854 95.4209 29.4478 95.3068 29.3914C95.1928 29.335 95.0978 29.2786 95.0027 29.2222C94.9077 29.1658 94.8127 29.0905 94.7367 29.0153C94.6607 28.9401 94.5846 28.8461 94.5276 28.7521C94.4706 28.6581 94.4136 28.5452 94.3946 28.4324C94.3566 28.3196 94.3566 28.188 94.3566 28.0376C94.3566 27.9247 94.3756 27.7931 94.3946 27.6803C94.4326 27.5675 94.4706 27.4546 94.5276 27.3418C94.5846 27.229 94.6607 27.135 94.7367 27.041C94.8127 26.947 94.9077 26.8717 95.0218 26.7777C95.1358 26.7025 95.2498 26.6273 95.3638 26.5709C95.4969 26.5145 95.6299 26.4581 95.782 26.4205C95.934 26.3829 96.086 26.3452 96.2381 26.3264C96.4091 26.3076 96.5802 26.2888 96.7512 26.2888C96.9033 26.2888 97.0743 26.2888 97.2264 26.3076C97.3784 26.3264 97.5305 26.3452 97.6635 26.3829C97.9486 26.4581 98.2146 26.5521 98.4427 26.6837C98.5567 26.7589 98.6518 26.8153 98.7468 26.9093C98.8418 26.9846 98.9369 27.0786 99.0129 27.1538C99.0889 27.2478 99.1459 27.3418 99.2029 27.4358C99.2599 27.5299 99.298 27.6427 99.317 27.7555L99.336 27.8307L99.2599 27.8495L98.4427 28.0752L98.3287 28.1128V27.9999C98.3287 27.9623 98.3287 27.9059 98.3097 27.8683C98.2907 27.8307 98.2717 27.7743 98.2337 27.7367C98.1956 27.6991 98.1386 27.6427 98.1006 27.6051C98.0436 27.5675 97.9866 27.5299 97.9106 27.4923C97.7585 27.417 97.6065 27.3606 97.3974 27.323C97.3024 27.3042 97.1884 27.2854 97.0933 27.2666C96.9983 27.2478 96.8843 27.2478 96.7702 27.2478C96.6562 27.2478 96.5612 27.2478 96.4472 27.2666C96.3521 27.2854 96.2571 27.2854 96.1621 27.323C96.067 27.3418 95.991 27.3606 95.915 27.3982C95.839 27.417 95.782 27.4546 95.7059 27.4923C95.6489 27.5299 95.5919 27.5675 95.5539 27.6051C95.5159 27.6427 95.4779 27.6803 95.4399 27.7367C95.4019 27.7743 95.3829 27.8307 95.3638 27.8683C95.3448 27.9059 95.3448 27.9623 95.3448 27.9999C95.3448 28.0752 95.3638 28.1316 95.3829 28.1692C95.4019 28.2256 95.4399 28.2632 95.4779 28.3008C95.5349 28.3384 95.5919 28.376 95.6679 28.4136C95.7439 28.4512 95.82 28.4888 95.915 28.5076C96.01 28.5452 96.105 28.5641 96.2001 28.5829C96.3141 28.6017 96.4091 28.6393 96.5422 28.6581C96.6752 28.6769 96.7892 28.6957 96.9033 28.7333C97.0363 28.7521 97.1694 28.7897 97.2834 28.8085C97.3974 28.8273 97.5305 28.8649 97.6635 28.8837C97.7965 28.9213 97.9106 28.9401 98.0246 28.9777C98.1576 29.0153 98.2717 29.0529 98.3857 29.1093C98.4997 29.1658 98.5947 29.2222 98.6898 29.2786C98.7848 29.335 98.8798 29.4102 98.9558 29.4854C99.0319 29.5606 99.1079 29.6546 99.1649 29.7487C99.2219 29.8427 99.2789 29.9555 99.298 30.0683C99.336 30.1811 99.336 30.3128 99.336 30.4632C99.336 30.576 99.317 30.7076 99.2789 30.8205C99.2409 30.9333 99.1839 31.0461 99.1269 31.1589C99.0509 31.2717 98.9749 31.3658 98.8798 31.4598C98.7848 31.5538 98.6898 31.629 98.5567 31.7042C98.4427 31.7794 98.3097 31.8546 98.1766 31.9111C98.0436 31.9675 97.8916 32.0239 97.7395 32.0615C97.6635 32.1179 97.5114 32.1367 97.3404 32.1743ZM75.7836 32.0991V26.3264V26.2324H75.8786H76.7148H76.8099V26.3264V32.0991V32.1931H76.7148H75.8786H75.7836V32.0991ZM54.4168 28.8837H56.4884C56.5454 28.8837 56.6024 28.8837 56.6594 28.8649C56.7164 28.8461 56.7544 28.8461 56.8114 28.8273C56.8685 28.8085 56.9065 28.7897 56.9445 28.7521C56.9825 28.7333 57.0205 28.6957 57.0585 28.6581C57.0965 28.6205 57.1345 28.5829 57.1535 28.5452C57.1916 28.5076 57.2106 28.4512 57.2296 28.4136C57.2486 28.3572 57.2676 28.3196 57.2866 28.2632C57.3056 28.2068 57.3056 28.1504 57.3056 28.094C57.3056 28.0376 57.3056 27.9811 57.2866 27.9247C57.2676 27.8683 57.2676 27.8307 57.2296 27.7743C57.2106 27.7179 57.1726 27.6803 57.1535 27.6427C57.1155 27.6051 57.0965 27.5675 57.0585 27.5299C57.0205 27.4923 56.9825 27.4546 56.9445 27.4358C56.9065 27.3982 56.8495 27.3794 56.8114 27.3606C56.7544 27.3418 56.7164 27.323 56.6594 27.3042C56.6024 27.2854 56.5454 27.2854 56.4884 27.2854H54.4168V28.8837ZM57.7237 32.1555L56.1083 29.8803H54.4168V32.0991V32.1931H54.3217H53.4855H53.3905V32.0991V26.3264V26.2324H53.4855H56.4884C56.6214 26.2324 56.7354 26.2512 56.8495 26.27C56.9635 26.2888 57.0775 26.3264 57.1916 26.3829C57.4196 26.4769 57.6097 26.6085 57.7807 26.7777C57.8567 26.8529 57.9328 26.947 58.0088 27.041C58.0658 27.135 58.1228 27.2478 58.1798 27.3606C58.2368 27.4735 58.2559 27.5863 58.2939 27.6991C58.3129 27.8119 58.3319 27.9435 58.3319 28.0564C58.3319 28.1504 58.3319 28.2444 58.3129 28.3384C58.2939 28.4324 58.2749 28.5264 58.2368 28.6205C58.1988 28.7145 58.1798 28.7897 58.1228 28.8837C58.0848 28.9589 58.0278 29.0529 57.9708 29.1282C57.9138 29.2034 57.8567 29.2786 57.7997 29.335C57.7427 29.3914 57.6667 29.4666 57.5907 29.523C57.5146 29.5794 57.4386 29.6358 57.3626 29.6735C57.3246 29.6923 57.2676 29.7299 57.2296 29.7487L58.883 32.0615L58.9781 32.2119H58.807H57.7807H57.7237V32.1555ZM32.955 27.4923L32.0047 29.5042H33.9052L32.955 27.4923ZM32.4988 26.2136H33.4111H33.4681L33.4871 26.27L36.2049 32.0427L36.2619 32.1743H36.1098H35.1976H35.1406L35.1216 32.1179L34.3804 30.5196H31.5296L30.7884 32.1179L30.7694 32.1743H30.7123H29.8001H29.648L29.7051 32.0427L32.4228 26.27L32.4418 26.2136H32.4988ZM10.8733 29.8991H8.80168V32.1179V32.2119H8.70665H7.87042H7.77539V32.1179V26.3452V26.2512H7.87042H10.8733C11.0063 26.2512 11.1203 26.27 11.2344 26.2888C11.3484 26.3076 11.4624 26.3452 11.5765 26.4017C11.8045 26.4957 11.9946 26.6273 12.1656 26.7965C12.2416 26.8717 12.3177 26.9658 12.3937 27.0598C12.4507 27.1538 12.5077 27.2666 12.5647 27.3794C12.6217 27.4923 12.6408 27.6051 12.6788 27.7179C12.6978 27.8307 12.7168 27.9623 12.7168 28.0752C12.7168 28.2068 12.6978 28.3196 12.6788 28.4512C12.6598 28.564 12.6217 28.6769 12.5647 28.7897C12.5077 28.9025 12.4507 28.9965 12.3937 29.0905C12.3177 29.1846 12.2606 29.2786 12.1656 29.3538C12.0896 29.429 11.9946 29.5042 11.8995 29.5794C11.8045 29.6358 11.6905 29.6923 11.5765 29.7487C11.4624 29.8051 11.3484 29.8239 11.2344 29.8615C11.1203 29.8803 11.0063 29.8991 10.8733 29.8991ZM8.80168 28.8837H10.8733C10.9303 28.8837 10.9873 28.8837 11.0443 28.8649C11.1013 28.8461 11.1393 28.8461 11.1963 28.8273C11.2534 28.8085 11.2914 28.7897 11.3294 28.7521C11.3674 28.7333 11.4054 28.6957 11.4434 28.6581C11.4814 28.6205 11.5194 28.5829 11.5384 28.5452C11.5765 28.5076 11.5955 28.4512 11.6145 28.4136C11.6335 28.3572 11.6525 28.3196 11.6715 28.2632C11.6905 28.2068 11.6905 28.1504 11.6905 28.094C11.6905 28.0376 11.6905 27.9811 11.6715 27.9247C11.6525 27.8683 11.6525 27.8307 11.6145 27.7743C11.5955 27.7179 11.5575 27.6803 11.5384 27.6427C11.5004 27.6051 11.4814 27.5675 11.4434 27.5299C11.4054 27.4923 11.3674 27.4546 11.3294 27.4358C11.2914 27.3982 11.2344 27.3794 11.1963 27.3606C11.1393 27.3418 11.1013 27.323 11.0443 27.3042C10.9873 27.2854 10.9303 27.2854 10.8733 27.2854H8.80168V28.8837Z" fill="white"/>
</svg>
