<svg width="73" height="20" viewBox="0 0 73 20" fill="none" xmlns="http://www.w3.org/2000/svg">
<path d="M1.75 5.75C1.75 5.33579 2.08579 5 2.5 5H13.5C13.9142 5 14.25 5.33579 14.25 5.75C14.25 6.16421 13.9142 6.5 13.5 6.5H2.5C2.08579 6.5 1.75 6.16421 1.75 5.75ZM3.75 9.75C3.75 9.33579 4.08579 9 4.5 9H11.5C11.9142 9 12.25 9.33579 12.25 9.75C12.25 10.1642 11.9142 10.5 11.5 10.5H4.5C4.08579 10.5 3.75 10.1642 3.75 9.75ZM5.75 13.75C5.75 13.3358 6.08579 13 6.5 13H9.5C9.91421 13 10.25 13.3358 10.25 13.75C10.25 14.1642 9.91421 14.5 9.5 14.5H6.5C6.08579 14.5 5.75 14.1642 5.75 13.75Z" fill="#002855"/>
<path d="M27.834 9.196H34.116V11.176H27.834V9.196ZM28.032 16H25.692V3.4H34.89V5.362H28.032V16ZM36.9369 16V6.388H39.1869V16H36.9369ZM38.0709 4.804C37.6509 4.804 37.3029 4.672 37.0269 4.408C36.7629 4.144 36.6309 3.826 36.6309 3.454C36.6309 3.07 36.7629 2.752 37.0269 2.5C37.3029 2.236 37.6509 2.104 38.0709 2.104C38.4909 2.104 38.8329 2.23 39.0969 2.482C39.3729 2.722 39.5109 3.028 39.5109 3.4C39.5109 3.796 39.3789 4.132 39.1149 4.408C38.8509 4.672 38.5029 4.804 38.0709 4.804ZM42.1401 16V2.644H44.3901V16H42.1401ZM51.4358 16.126C50.3798 16.126 49.5638 15.856 48.9878 15.316C48.4118 14.764 48.1238 13.954 48.1238 12.886V4.264H50.3738V12.832C50.3738 13.288 50.4878 13.642 50.7158 13.894C50.9558 14.146 51.2858 14.272 51.7058 14.272C52.2098 14.272 52.6298 14.14 52.9658 13.876L53.5958 15.478C53.3318 15.694 53.0078 15.856 52.6238 15.964C52.2398 16.072 51.8438 16.126 51.4358 16.126ZM46.5398 8.26V6.46H52.9478V8.26H46.5398ZM59.6483 16.126C58.5803 16.126 57.6443 15.916 56.8403 15.496C56.0483 15.064 55.4303 14.476 54.9863 13.732C54.5543 12.988 54.3383 12.142 54.3383 11.194C54.3383 10.234 54.5483 9.388 54.9683 8.656C55.4003 7.912 55.9883 7.33 56.7323 6.91C57.4883 6.49 58.3463 6.28 59.3063 6.28C60.2423 6.28 61.0763 6.484 61.8083 6.892C62.5403 7.3 63.1163 7.876 63.5363 8.62C63.9563 9.364 64.1663 10.24 64.1663 11.248C64.1663 11.344 64.1603 11.452 64.1483 11.572C64.1483 11.692 64.1423 11.806 64.1303 11.914H56.1203V10.42H62.9423L62.0603 10.888C62.0723 10.336 61.9583 9.85 61.7183 9.43C61.4783 9.01 61.1483 8.68 60.7283 8.44C60.3203 8.2 59.8463 8.08 59.3063 8.08C58.7543 8.08 58.2683 8.2 57.8483 8.44C57.4403 8.68 57.1163 9.016 56.8763 9.448C56.6483 9.868 56.5343 10.366 56.5343 10.942V11.302C56.5343 11.878 56.6663 12.388 56.9303 12.832C57.1943 13.276 57.5663 13.618 58.0463 13.858C58.5263 14.098 59.0783 14.218 59.7023 14.218C60.2423 14.218 60.7283 14.134 61.1603 13.966C61.5923 13.798 61.9763 13.534 62.3123 13.174L63.5183 14.56C63.0863 15.064 62.5403 15.454 61.8803 15.73C61.2323 15.994 60.4883 16.126 59.6483 16.126ZM66.3276 16V6.388H68.4696V9.034L68.2176 8.26C68.5056 7.612 68.9556 7.12 69.5676 6.784C70.1916 6.448 70.9656 6.28 71.8896 6.28V8.422C71.7936 8.398 71.7036 8.386 71.6196 8.386C71.5356 8.374 71.4516 8.368 71.3676 8.368C70.5156 8.368 69.8376 8.62 69.3336 9.124C68.8296 9.616 68.5776 10.354 68.5776 11.338V16H66.3276Z" fill="#002855"/>
</svg>
