<svg width="64" height="63" viewBox="0 0 64 63" fill="none" xmlns="http://www.w3.org/2000/svg">
<g clip-path="url(#clip0_506_6502)">
<path d="M32.0079 0H31.9922C14.6239 0 0.500041 14.1277 0.500041 31.5C0.489256 38.1347 2.58947 44.6008 6.49685 49.9629L2.57117 61.6652L14.679 57.7946C19.8149 61.202 25.8445 63.0132 32.0079 63C49.3762 63 63.5 48.8683 63.5 31.5C63.5 14.1317 49.3762 0 32.0079 0Z" fill="#4CAF50"/>
<path d="M50.3377 44.4816C49.5777 46.6275 46.5616 48.4073 44.1558 48.927C42.5099 49.2775 40.36 49.557 33.1229 46.5567C23.8658 42.7215 17.9045 33.3149 17.4398 32.7045C16.9949 32.0942 13.6992 27.7236 13.6992 23.2034C13.6992 18.6831 15.9948 16.482 16.9201 15.537C17.68 14.7614 18.9361 14.407 20.141 14.407C20.5308 14.407 20.8812 14.4267 21.1962 14.4424C22.1215 14.4818 22.5862 14.5369 23.1965 15.9977C23.9564 17.8287 25.807 22.3489 26.0275 22.8135C26.252 23.2782 26.4764 23.9082 26.1614 24.5185C25.8661 25.1485 25.6062 25.428 25.1416 25.9635C24.677 26.499 24.236 26.9085 23.7713 27.4834C23.3461 27.9835 22.8657 28.519 23.4012 29.4443C23.9367 30.3499 25.7873 33.37 28.5121 35.7955C32.0283 38.9258 34.879 39.9259 35.8988 40.3512C36.6588 40.6662 37.5644 40.5914 38.1196 40.0007C38.8244 39.2408 39.6946 37.9808 40.5805 36.7405C41.2105 35.8506 42.0059 35.7404 42.8407 36.0554C43.6912 36.3507 48.1917 38.5754 49.117 39.036C50.0423 39.5007 50.6527 39.7212 50.8771 40.111C51.0976 40.5008 51.0976 42.3317 50.3377 44.4816Z" fill="#FAFAFA"/>
</g>
<defs>
<clipPath id="clip0_506_6502">
<rect width="63" height="63" fill="white" transform="translate(0.5)"/>
</clipPath>
</defs>
</svg>
