<svg width="49" height="49" viewBox="0 0 49 49" fill="none" xmlns="http://www.w3.org/2000/svg">
<g clip-path="url(#clip0_506_6487)">
<path d="M15.6598 43.84C33.6259 43.84 43.4526 28.9553 43.4526 16.0473C43.4526 15.6245 43.4526 15.2037 43.424 14.7847C45.3357 13.4019 46.9859 11.6898 48.2974 9.72852C46.5146 10.5185 44.6235 11.0365 42.687 11.2654C44.7261 10.0446 46.2523 8.12458 46.9814 5.8626C45.064 7.00039 42.9663 7.80225 40.7788 8.23357C39.3061 6.66755 37.3582 5.63058 35.2368 5.28311C33.1153 4.93565 30.9384 5.29706 29.0431 6.31142C27.1477 7.32579 25.6395 8.93655 24.7518 10.8945C23.8641 12.8524 23.6464 15.0483 24.1325 17.1423C20.249 16.9476 16.4498 15.9384 12.9816 14.1802C9.51338 12.422 6.45369 9.95408 4.00115 6.93668C2.75204 9.08705 2.36946 11.6326 2.93131 14.0552C3.49316 16.4777 4.95719 18.595 7.02532 19.9761C5.47085 19.93 3.95026 19.5107 2.59189 18.7534C2.59189 18.7934 2.59189 18.8353 2.59189 18.8772C2.59251 21.1324 3.37319 23.318 4.80153 25.0633C6.22986 26.8085 8.21791 28.006 10.4285 28.4525C8.99041 28.8447 7.48158 28.902 6.0179 28.6201C6.64208 30.561 7.85729 32.2583 9.49355 33.4746C11.1298 34.6908 13.1053 35.3653 15.1438 35.4036C11.6849 38.122 7.41203 39.5977 3.01277 39.5932C2.23559 39.5917 1.45917 39.5447 0.6875 39.4523C5.15452 42.3189 10.3521 43.8395 15.6598 43.8324" fill="#002855"/>
</g>
<defs>
<clipPath id="clip0_506_6487">
<rect width="48" height="48" fill="white" transform="translate(0.5 0.5)"/>
</clipPath>
</defs>
</svg>
