<svg width="32" height="32" viewBox="0 0 32 32" fill="none" xmlns="http://www.w3.org/2000/svg">
<path d="M27.5026 31H4.4977C2.56591 31 1 29.4341 1 27.5023V4.49766C1 2.56589 2.56591 1 4.4977 1H27.5023C29.4341 1 31 2.56589 31 4.49766V27.502C31.0003 29.4341 29.4344 31 27.5026 31Z" fill="black" stroke="white" stroke-miterlimit="10"/>
<path d="M5.51967 6.18372L13.5993 16.984L5.46875 25.7649H7.29876L14.4172 18.0769L20.1686 25.7649H26.3957L17.8613 14.3572L25.4293 6.18372H23.5993L17.0437 13.264L11.7468 6.18372H5.51967ZM8.21079 7.53151H11.0715L23.7043 24.4174H20.8435L8.21079 7.53151Z" fill="white"/>
</svg>
